<svg width="695" height="622" viewBox="0 0 695 622" fill="none" xmlns="http://www.w3.org/2000/svg">
<g opacity="0.38">
<g clip-path="url(#clip0_142_203)">
<path d="M548.499 168.625C510.038 168.625 471.954 176.2 436.421 190.919C400.888 205.637 368.601 227.21 341.405 254.406C314.209 281.602 292.636 313.888 277.918 349.421C263.2 384.955 255.624 423.039 255.624 461.5C255.624 499.961 263.2 538.045 277.918 573.578C292.636 609.112 314.209 641.398 341.405 668.594C368.601 695.79 400.888 717.363 436.421 732.081C471.954 746.799 510.038 754.375 548.499 754.375C626.175 754.375 700.668 723.518 755.593 668.594C810.518 613.669 841.374 539.175 841.374 461.5C841.374 383.825 810.518 309.331 755.593 254.406C700.668 199.481 626.175 168.625 548.499 168.625ZM190.541 461.5C190.541 263.809 350.809 103.542 548.499 103.542C746.19 103.542 906.458 263.809 906.458 461.5C906.458 659.19 746.19 819.458 548.499 819.458C350.809 819.458 190.541 659.19 190.541 461.5ZM548.499 298.792C505.346 298.792 463.961 315.934 433.447 346.448C402.933 376.961 385.791 418.347 385.791 461.5C385.791 504.653 402.933 546.038 433.447 576.552C463.961 607.066 505.346 624.208 548.499 624.208C591.652 624.208 633.038 607.066 663.551 576.552C694.065 546.038 711.208 504.653 711.208 461.5C711.208 418.347 694.065 376.961 663.551 346.448C633.038 315.934 591.652 298.792 548.499 298.792ZM320.708 461.5C320.708 431.586 326.6 401.965 338.047 374.328C349.495 346.691 366.274 321.579 387.426 300.427C408.579 279.274 433.69 262.495 461.327 251.048C488.964 239.6 518.585 233.708 548.499 233.708C578.413 233.708 608.034 239.6 635.671 251.048C663.308 262.495 688.42 279.274 709.572 300.427C730.725 321.579 747.504 346.691 758.951 374.328C770.399 401.965 776.291 431.586 776.291 461.5C776.291 521.914 752.292 579.854 709.572 622.573C666.853 665.292 608.913 689.292 548.499 689.292C488.085 689.292 430.145 665.292 387.426 622.573C344.707 579.854 320.708 521.914 320.708 461.5ZM483.416 461.5C483.416 444.239 490.273 427.685 502.478 415.479C514.684 403.274 531.238 396.417 548.499 396.417C565.76 396.417 582.315 403.274 594.52 415.479C606.726 427.685 613.583 444.239 613.583 461.5C613.583 478.761 606.726 495.315 594.52 507.521C582.315 519.726 565.76 526.583 548.499 526.583C531.238 526.583 514.684 519.726 502.478 507.521C490.273 495.315 483.416 478.761 483.416 461.5Z" fill="#FD9717"/>
<path fill-rule="evenodd" clip-rule="evenodd" d="M210.478 113.509C213.855 109.722 216.598 108.591 219.399 108.52C222.2 108.451 225.626 109.68 229.587 112.657C237.51 118.612 246.625 131.22 254.714 146.47C263.234 162.528 270.736 181.539 276.167 198.87L202.049 137.995C202.146 137.415 202.243 136.836 202.352 136.224C203.948 127.313 207.233 117.148 210.478 113.509ZM179.541 161.807C180.136 161.628 180.701 161.466 181.266 161.304L250.203 227.989C232.365 224.572 212.624 219.288 195.697 212.658C179.624 206.362 166.056 198.746 159.236 191.555C155.826 187.958 154.214 184.696 153.963 181.905C153.713 179.114 154.525 176.259 157.901 172.472C161.147 168.833 170.871 164.41 179.541 161.807ZM303.118 263.715L317.702 247.359L369.254 289.7L351.066 310.097L303.118 263.715ZM359.058 317.827L377.847 296.756L379.299 297.949C379.33 297.978 382.059 300.521 383.544 304.253C385.039 308.005 385.768 311.982 380.429 317.971C375.089 323.96 371.054 323.69 367.156 322.634C363.301 321.589 360.476 319.192 360.412 319.138L359.058 317.827ZM388.721 325.365C389.839 324.116 390.845 322.77 391.726 321.344L454.751 384.243L385.069 328.81C386.386 327.772 387.608 326.619 388.721 325.365Z" fill="#57A80D"/>
<path d="M195.504 146.996L189.46 153.773L295.125 255.984L309.109 240.302L195.504 146.996Z" fill="#57A80D"/>
</g>
</g>
<defs>
<clipPath id="clip0_142_203">
<rect width="781" height="781" fill="white" transform="translate(158 71)"/>
</clipPath>
</defs>
</svg>
