<svg width="500" height="500" viewBox="0 0 500 500" fill="none" xmlns="http://www.w3.org/2000/svg">
<g clip-path="url(#clip0_1348_3361)">
<path d="M235.156 79.8872C266.52 94.1034 286.968 125.109 294.419 164.182C301.868 203.247 296.255 250.152 275.67 295.568C255.084 340.985 223.511 376.122 189.223 396.27C154.928 416.422 118.133 421.482 86.7686 407.266C55.404 393.049 34.9561 362.043 27.5053 322.97C20.0561 283.905 25.669 237.001 46.2546 191.584C66.8402 146.167 98.4131 111.029 132.701 90.882C166.996 70.7305 203.791 65.671 235.156 79.8872Z" fill="#FB9912" stroke="white" stroke-width="5"/>
<path d="M304.33 177.104C274.987 149.911 257.448 104.239 251.102 85.2824C249.509 80.5258 252.329 75.6585 257.318 75.1392C275.091 73.2894 316.939 74.3797 360.416 114.674C405.432 156.394 404.358 191.188 401.789 204.283C401.109 207.752 398.007 209.933 394.474 209.826C378.843 209.352 334.875 205.413 304.33 177.104Z" fill="#5CA90C" stroke="white" stroke-width="6"/>
<path d="M265.718 38.3589C268.848 39.8278 270.407 43.3866 269.366 46.6835L262.843 67.3314L262.813 67.4282L262.775 67.5214C255.789 84.6589 250.029 92.4337 246.868 95.7753C244.745 98.0207 241.663 98.0997 239.321 97.0006C234.862 94.908 233.463 89.303 236.201 85.3138C240.313 79.3224 246.675 69.514 249.976 61.759C252.345 56.1947 254.615 48.22 255.997 42.9511C257.093 38.7693 261.735 36.4899 265.718 38.3589Z" fill="#5CA90C" stroke="white" stroke-width="5"/>
<mask id="path-4-outside-1_1348_3361" maskUnits="userSpaceOnUse" x="167.477" y="188.836" width="318" height="274" fill="black">
<rect fill="white" x="167.477" y="188.836" width="318" height="274"/>
<path d="M172.797 318.918C177.24 246.979 226.731 191.496 283.338 194.992C284.925 195.09 286.501 195.235 288.065 195.423L288.324 195.438L288.323 195.454H288.325C288.326 195.443 288.326 195.439 288.326 195.438H288.328C288.33 195.439 288.333 195.439 288.337 195.439C288.344 195.44 288.355 195.441 288.368 195.441C288.395 195.443 288.435 195.445 288.487 195.448C288.592 195.455 288.748 195.465 288.95 195.479C289.355 195.506 289.952 195.547 290.722 195.606C292.261 195.725 294.496 195.915 297.286 196.199C302.865 196.767 310.672 197.713 319.594 199.223C337.398 202.235 359.801 207.52 377.784 216.632C404.123 229.977 427.831 240.987 445.74 257.851C463.787 274.844 475.884 297.685 479.478 334.511C483.125 371.889 462.292 406.703 423.321 429.64C386.72 451.181 334.025 462.343 269.984 455.628C269.074 455.602 268.161 455.562 267.246 455.506C210.64 452.009 168.353 390.857 172.797 318.918Z"/>
</mask>
<path d="M172.797 318.918C177.24 246.979 226.731 191.496 283.338 194.992C284.925 195.09 286.501 195.235 288.065 195.423L288.324 195.438L288.323 195.454H288.325C288.326 195.443 288.326 195.439 288.326 195.438H288.328C288.33 195.439 288.333 195.439 288.337 195.439C288.344 195.44 288.355 195.441 288.368 195.441C288.395 195.443 288.435 195.445 288.487 195.448C288.592 195.455 288.748 195.465 288.95 195.479C289.355 195.506 289.952 195.547 290.722 195.606C292.261 195.725 294.496 195.915 297.286 196.199C302.865 196.767 310.672 197.713 319.594 199.223C337.398 202.235 359.801 207.52 377.784 216.632C404.123 229.977 427.831 240.987 445.74 257.851C463.787 274.844 475.884 297.685 479.478 334.511C483.125 371.889 462.292 406.703 423.321 429.64C386.72 451.181 334.025 462.343 269.984 455.628C269.074 455.602 268.161 455.562 267.246 455.506C210.64 452.009 168.353 390.857 172.797 318.918Z" fill="#FB9912"/>
<path d="M172.797 318.918L167.806 318.61L172.797 318.918ZM283.338 194.992L283.646 190.002L283.646 190.002L283.338 194.992ZM288.065 195.423L287.47 200.387L287.616 200.405L287.764 200.414L288.065 195.423ZM288.324 195.438L293.314 195.75L293.627 190.75L288.626 190.448L288.324 195.438ZM288.323 195.454L283.333 195.142L283.001 200.454H288.323V195.454ZM288.325 195.454V200.454H293.008L293.314 195.781L288.325 195.454ZM288.326 195.438V190.438H284.101L283.396 194.604L288.326 195.438ZM288.328 195.438L288.615 190.447L288.472 190.438H288.328V195.438ZM288.337 195.439L288.033 200.43L288.047 200.431L288.337 195.439ZM288.368 195.441L288.072 200.433L288.072 200.433L288.368 195.441ZM288.487 195.448L288.795 190.458L288.795 190.458L288.487 195.448ZM288.95 195.479L289.283 190.49L289.283 190.49L288.95 195.479ZM290.722 195.606L291.107 190.621L291.107 190.621L290.722 195.606ZM297.286 196.199L297.793 191.225L297.793 191.225L297.286 196.199ZM319.594 199.223L320.428 194.293L320.428 194.293L319.594 199.223ZM377.784 216.632L380.044 212.172L377.784 216.632ZM445.74 257.851L449.168 254.21V254.21L445.74 257.851ZM479.478 334.511L484.454 334.025V334.025L479.478 334.511ZM423.321 429.64L425.857 433.949V433.949L423.321 429.64ZM269.984 455.628L270.506 450.655L270.317 450.635L270.126 450.63L269.984 455.628ZM267.246 455.506L266.938 460.496L267.246 455.506ZM172.797 318.918L177.787 319.226C182.134 248.863 230.228 196.721 283.03 199.983L283.338 194.992L283.646 190.002C223.235 186.27 172.347 245.095 167.806 318.61L172.797 318.918ZM283.338 194.992L283.03 199.983C284.518 200.075 285.998 200.211 287.47 200.387L288.065 195.423L288.661 190.458C287.005 190.26 285.333 190.106 283.646 190.002L283.338 194.992ZM288.065 195.423L287.764 200.414L288.023 200.429L288.324 195.438L288.626 190.448L288.367 190.432L288.065 195.423ZM288.324 195.438L283.334 195.127L283.333 195.142L288.323 195.454L293.314 195.766L293.314 195.75L288.324 195.438ZM288.323 195.454V200.454H288.325V195.454V190.454H288.323V195.454ZM288.325 195.454L293.314 195.781C293.316 195.753 293.318 195.731 293.318 195.72C293.319 195.704 293.317 195.735 293.315 195.765C293.314 195.782 293.311 195.83 293.306 195.892C293.303 195.925 293.298 195.973 293.291 196.03C293.284 196.086 293.273 196.171 293.256 196.273L288.326 195.438L283.396 194.604C283.379 194.706 283.368 194.791 283.361 194.847C283.354 194.905 283.35 194.953 283.347 194.986C283.341 195.048 283.338 195.097 283.337 195.114C283.335 195.145 283.333 195.178 283.334 195.165C283.334 195.158 283.335 195.144 283.336 195.127L288.325 195.454ZM288.326 195.438V200.438H288.328V195.438V190.438H288.326V195.438ZM288.328 195.438L288.041 200.43C287.994 200.428 287.952 200.424 287.916 200.421C287.881 200.419 287.85 200.416 287.824 200.413C287.797 200.41 287.775 200.408 287.756 200.406C287.737 200.403 287.721 200.401 287.708 200.4C287.696 200.398 287.685 200.397 287.678 200.396C287.67 200.395 287.664 200.394 287.661 200.394C287.658 200.393 287.656 200.393 287.657 200.393C287.657 200.393 287.66 200.394 287.663 200.394C287.671 200.395 287.686 200.397 287.706 200.4C287.726 200.402 287.752 200.405 287.783 200.409C287.814 200.412 287.85 200.416 287.892 200.42C287.934 200.423 287.981 200.427 288.033 200.43L288.337 195.439L288.641 190.449C288.692 190.452 288.738 190.455 288.779 190.459C288.82 190.463 288.856 190.466 288.886 190.47C288.916 190.473 288.941 190.476 288.96 190.479C288.979 190.481 288.994 190.483 289 190.484C289.002 190.484 289.004 190.484 289.004 190.484C289.005 190.484 289.005 190.484 289.006 190.485C289.006 190.485 289.006 190.485 289.006 190.485C289.007 190.485 289.004 190.484 289.001 190.484C288.997 190.483 288.991 190.483 288.983 190.481C288.975 190.48 288.964 190.479 288.951 190.477C288.938 190.476 288.922 190.474 288.903 190.472C288.884 190.469 288.861 190.467 288.834 190.464C288.808 190.461 288.776 190.458 288.741 190.456C288.705 190.453 288.663 190.449 288.615 190.447L288.328 195.438ZM288.337 195.439L288.047 200.431C288.041 200.431 288.036 200.43 288.033 200.43C288.03 200.43 288.028 200.43 288.027 200.43C288.026 200.43 288.026 200.43 288.026 200.43C288.027 200.43 288.027 200.43 288.03 200.43C288.036 200.43 288.052 200.431 288.072 200.433L288.368 195.441L288.664 190.45C288.671 190.451 288.675 190.451 288.671 190.451C288.67 190.451 288.664 190.45 288.659 190.45C288.653 190.449 288.641 190.449 288.627 190.448L288.337 195.439ZM288.368 195.441L288.072 200.433C288.089 200.434 288.104 200.434 288.113 200.435C288.119 200.435 288.124 200.436 288.128 200.436C288.133 200.436 288.137 200.436 288.141 200.437C288.156 200.437 288.168 200.438 288.18 200.439L288.487 195.448L288.795 190.458C288.755 190.455 288.721 190.453 288.696 190.452C288.69 190.452 288.685 190.451 288.68 190.451C288.675 190.451 288.672 190.451 288.668 190.45C288.661 190.45 288.661 190.45 288.664 190.45L288.368 195.441ZM288.487 195.448L288.179 200.439C288.269 200.444 288.411 200.454 288.618 200.467L288.95 195.479L289.283 190.49C289.084 190.476 288.915 190.465 288.795 190.458L288.487 195.448ZM288.95 195.479L288.618 200.467C289.009 200.494 289.587 200.534 290.336 200.592L290.722 195.606L291.107 190.621C290.317 190.56 289.702 190.518 289.283 190.49L288.95 195.479ZM290.722 195.606L290.336 200.592C291.84 200.708 294.034 200.894 296.78 201.174L297.286 196.199L297.793 191.225C294.958 190.936 292.683 190.743 291.107 190.621L290.722 195.606ZM297.286 196.199L296.78 201.174C302.273 201.733 309.968 202.665 318.76 204.153L319.594 199.223L320.428 194.293C311.376 192.761 303.457 191.802 297.793 191.225L297.286 196.199ZM319.594 199.223L318.76 204.153C336.401 207.137 358.215 212.322 375.524 221.092L377.784 216.632L380.044 212.172C361.387 202.719 338.396 197.333 320.428 194.293L319.594 199.223ZM377.784 216.632L375.524 221.092C402.187 234.601 425.062 245.247 442.313 261.491L445.74 257.851L449.168 254.21C430.6 236.726 406.059 225.352 380.044 212.172L377.784 216.632ZM445.74 257.851L442.313 261.491C459.355 277.538 471.007 299.194 474.501 334.996L479.478 334.511L484.454 334.025C480.76 296.176 468.22 272.15 449.168 254.21L445.74 257.851ZM479.478 334.511L474.501 334.996C477.913 369.959 458.537 403.111 420.785 425.331L423.321 429.64L425.857 433.949C466.047 410.295 488.337 373.82 484.454 334.025L479.478 334.511ZM423.321 429.64L420.785 425.331C385.308 446.211 333.743 457.286 270.506 450.655L269.984 455.628L269.463 460.601C334.308 467.4 388.132 456.152 425.857 433.949L423.321 429.64ZM269.984 455.628L270.126 450.63C269.266 450.605 268.409 450.568 267.554 450.515L267.246 455.506L266.938 460.496C267.913 460.557 268.881 460.599 269.842 460.626L269.984 455.628ZM267.246 455.506L267.554 450.515C214.752 447.254 173.441 389.59 177.787 319.226L172.797 318.918L167.806 318.61C163.266 392.124 206.527 456.765 266.938 460.496L267.246 455.506Z" fill="white" mask="url(#path-4-outside-1_1348_3361)"/>
<path d="M284.621 198.127C339.603 201.523 381.472 261.185 377.071 332.451C372.669 403.717 323.775 457.773 268.793 454.377C213.812 450.98 171.942 391.318 176.344 320.052C180.746 248.787 229.64 194.731 284.621 198.127Z" fill="white" stroke="#FB9912" stroke-width="4.27128"/>
<path d="M283.607 211.278C284.159 209.991 285.471 209.19 286.862 209.353C298.984 210.775 310.298 216.92 322.552 228.408C323.64 229.429 323.887 231.06 323.176 232.372L321.261 235.904C320.928 236.518 320.412 237.011 319.784 237.316L286.564 253.408C285.499 253.924 285.423 255.413 286.43 256.035L301.672 265.441C303.177 266.369 303.695 268.311 302.852 269.866L290.127 293.342C288.976 295.465 286.022 295.695 284.649 293.708C280.668 287.945 277.637 282.2 274.359 274.658C273.73 273.211 272.185 272.381 270.636 272.682L269.78 272.848C267.863 273.221 266.672 275.159 267.245 277.025C270.543 287.766 274.227 295.222 281.911 303.644C282.889 304.717 283.109 306.29 282.417 307.567L274.568 322.048C273.236 324.506 269.653 324.331 268.566 321.756L230.11 230.635C229.459 229.092 230.056 227.301 231.511 226.47C246.19 218.076 258.621 212.536 269.89 210.236C272.502 209.703 274.387 212.461 273.294 214.892C269.01 224.428 267.793 232.345 267.758 242.974C267.752 244.926 269.454 246.434 271.396 246.234L272.264 246.145C273.833 245.983 275.072 244.74 275.253 243.172C276.681 230.85 278.759 222.603 283.607 211.278Z" fill="#E75800"/>
<path d="M284.178 322.32C283.33 323.873 283.842 325.818 285.346 326.751L313.737 344.372C315.349 345.372 317.474 344.829 318.361 343.153C322.82 334.729 325.421 327.404 327.927 317.154C328.302 315.622 329.685 314.543 331.262 314.577L332.285 314.6C334.237 314.643 335.738 316.351 335.49 318.287C334.035 329.637 331.641 337.764 325.432 347.51C324.408 349.116 324.849 351.268 326.468 352.273L352.166 368.224C354.083 369.414 356.612 368.366 357.143 366.173C372.724 301.815 364.477 275.186 335.767 237.59C334.314 235.688 331.389 235.926 330.241 238.027L284.178 322.32ZM338.124 287.449C339.815 287.481 341.16 288.878 341.128 290.569C341.056 294.386 340.743 296.611 339.855 300.384C339.468 302.03 337.819 303.051 336.173 302.664C334.526 302.277 333.505 300.628 333.893 298.981C334.692 295.582 334.941 293.789 335.004 290.454C335.036 288.763 336.433 287.417 338.124 287.449Z" fill="#E75800"/>
<path d="M260.811 324.664C261.431 326.147 260.904 327.861 259.558 328.74L252.279 333.491C251.092 334.266 249.54 334.21 248.44 333.315C244.197 329.862 240.298 326.052 235.885 321.22C234.821 320.055 233.089 319.77 231.722 320.557L230.942 321.005C229.25 321.978 228.751 324.199 229.897 325.778C232.998 330.048 235.944 333.608 239.229 336.75C240.862 338.312 240.72 341.035 238.828 342.27L200.162 367.51C198.245 368.761 195.667 367.751 195.134 365.525C191.356 349.738 189.19 336.085 188.506 323.909C188.326 320.715 192.54 319.206 194.837 321.432C196.929 323.46 199.228 325.438 201.8 327.487C203.327 328.704 205.567 328.305 206.615 326.658L207.098 325.899C207.945 324.568 207.738 322.826 206.622 321.711C199.395 314.491 194.6 308.636 189.857 300.765C189.473 300.128 189.32 299.376 189.425 298.639C190.901 288.305 193.765 278.952 197.889 269.92C199.094 267.281 202.866 267.527 204.078 270.164C207.938 278.568 212.706 284.448 219.829 291.168C221.249 292.508 223.514 292.297 224.696 290.743L225.241 290.027C226.196 288.772 226.136 287.018 225.116 285.813C216.708 275.881 212.048 268.484 206.82 256.249C206.396 255.258 206.486 254.12 207.064 253.21C210.512 247.784 214.398 242.323 218.695 236.678C220.237 234.653 223.381 235.077 224.363 237.426L260.811 324.664Z" fill="#E75800"/>
<path d="M295.793 343.008C286.381 337.078 274.107 343.738 273.949 354.861L273.592 379.894C273.572 381.281 274.413 382.535 275.703 383.043L284.44 386.484C287.002 387.493 289.806 387.713 292.493 387.119C295.482 386.457 298.18 384.808 300.141 382.451C302.293 379.866 303.446 376.578 303.372 373.221L303.35 372.159C303.319 370.751 304.436 369.584 305.844 369.552C307.252 369.522 308.42 370.639 308.451 372.047L308.474 373.109C308.575 377.702 306.999 382.188 304.064 385.715C301.383 388.937 297.694 391.193 293.596 392.1C289.917 392.915 286.078 392.611 282.571 391.231L277.967 389.417C275.799 388.563 273.446 390.141 273.413 392.471L272.915 427.369C272.906 427.997 272.937 428.615 273.006 429.219C273.155 430.521 274.242 431.464 275.536 431.671L300.543 435.677C301.227 435.786 301.928 435.681 302.546 435.369C311.581 430.809 319.097 425.681 325.455 419.592C326.548 418.545 327.605 417.47 328.63 416.365C330.025 414.861 329.619 412.455 327.688 411.765C325.924 411.134 324.065 410.752 322.088 410.6C316.026 410.134 308.602 411.802 299.092 415.677C297.728 416.232 296.159 415.612 295.576 414.26C294.994 412.907 295.619 411.335 296.982 410.778C306.847 406.748 315.211 404.722 322.497 405.282C325.862 405.541 328.943 406.347 331.789 407.698C333.377 408.452 335.334 408.107 336.314 406.648C337.179 405.36 338.017 404.037 338.829 402.676C338.929 402.508 339.014 402.331 339.081 402.148C341.303 396.106 342.229 389.588 340.717 383.024C338.964 375.413 333.928 367.736 323.819 360.666L295.793 343.008Z" fill="#E75800"/>
<path d="M261.196 336.85C263.545 335.287 266.683 337.004 266.634 339.825L264.878 440.598C264.838 442.895 262.627 444.534 260.425 443.866C257.99 443.128 255.655 442.375 253.412 441.604C252.201 441.188 251.346 440.098 251.221 438.823C249.767 423.972 250.303 414.933 253.254 401.334C253.588 399.792 252.819 398.216 251.386 397.556L250.55 397.171C248.777 396.354 246.678 397.232 246.053 399.081C241.682 412.018 240.579 421.37 243.55 436.975C243.617 437.325 243.241 437.719 242.913 437.578C235.874 434.545 229.917 431.199 224.767 427.365C224.041 426.824 223.583 425.997 223.492 425.095C221.943 409.782 222.448 400.667 225.449 386.835C225.784 385.293 225.013 383.717 223.58 383.057L222.744 382.672C220.971 381.855 218.873 382.733 218.248 384.582C215.469 392.807 214.011 399.584 214.082 407.439C214.112 410.751 210.087 412.475 208.275 409.703C203.516 402.424 199.589 393.844 195.812 383.536C195.26 382.028 195.82 380.331 197.156 379.442L229.398 357.998C231.986 356.277 235.549 358.789 235.155 361.872C234.724 365.25 234.541 368.78 234.515 372.673C234.501 374.625 236.198 376.139 238.141 375.946L239.057 375.855C240.627 375.7 241.869 374.461 242.057 372.895C243.303 362.47 245.001 354.948 248.432 346.058C248.677 345.424 249.116 344.883 249.682 344.507L261.196 336.85Z" fill="#E75800"/>
</g>
<defs>
<clipPath id="clip0_1348_3361">
<rect width="500" height="500" fill="white"/>
</clipPath>
</defs>
</svg>
