<svg xmlns="http://www.w3.org/2000/svg" width="508" height="436" viewBox="0 0 508 436" fill="none">
<mask id="path-1-outside-1_1348_3272" maskUnits="userSpaceOnUse" x="2.05469" y="0.242188" width="506" height="435" fill="black">
<rect fill="white" x="2.05469" y="0.242188" width="506" height="435"/>
<path d="M10.5654 206C17.6475 91.3469 96.524 2.91973 186.741 8.49219C189.284 8.64928 191.81 8.88017 194.315 9.18164L194.689 9.20312L194.688 9.22656H194.689C194.691 9.20754 194.691 9.20384 194.691 9.20312C194.692 9.20317 194.694 9.20305 194.695 9.20312C194.698 9.20331 194.703 9.20377 194.709 9.2041C194.72 9.20477 194.737 9.20576 194.759 9.20703C194.802 9.20961 194.867 9.2136 194.95 9.21875C195.118 9.22908 195.365 9.24509 195.688 9.2666C196.333 9.30967 197.284 9.37586 198.511 9.4707C200.964 9.66044 204.525 9.96331 208.972 10.416C217.863 11.3213 230.306 12.8276 244.525 15.2334C272.902 20.0346 308.607 28.4581 337.268 42.9795C379.245 64.2481 417.03 81.7957 445.573 108.673C474.336 135.756 493.613 172.16 499.341 230.852C505.154 290.424 471.953 345.909 409.843 382.464C351.504 416.799 267.512 434.592 165.434 423.884C163.991 423.842 162.545 423.778 161.096 423.688C70.8784 418.116 3.48349 320.653 10.5654 206Z"/>
</mask>
<path d="M10.5654 206C17.6475 91.3469 96.524 2.91973 186.741 8.49219C189.284 8.64928 191.81 8.88017 194.315 9.18164L194.689 9.20312L194.688 9.22656H194.689C194.691 9.20754 194.691 9.20384 194.691 9.20312C194.692 9.20317 194.694 9.20305 194.695 9.20312C194.698 9.20331 194.703 9.20377 194.709 9.2041C194.72 9.20477 194.737 9.20576 194.759 9.20703C194.802 9.20961 194.867 9.2136 194.95 9.21875C195.118 9.22908 195.365 9.24509 195.688 9.2666C196.333 9.30967 197.284 9.37586 198.511 9.4707C200.964 9.66044 204.525 9.96331 208.972 10.416C217.863 11.3213 230.306 12.8276 244.525 15.2334C272.902 20.0346 308.607 28.4581 337.268 42.9795C379.245 64.2481 417.03 81.7957 445.573 108.673C474.336 135.756 493.613 172.16 499.341 230.852C505.154 290.424 471.953 345.909 409.843 382.464C351.504 416.799 267.512 434.592 165.434 423.884C163.991 423.842 162.545 423.778 161.096 423.688C70.8784 418.116 3.48349 320.653 10.5654 206Z" fill="#FB9912"/>
<path d="M10.5654 206L2.61178 205.509H2.61178L10.5654 206ZM186.741 8.49219L187.232 0.538538L187.232 0.538538L186.741 8.49219ZM194.315 9.18164L193.364 17.0934L193.61 17.1231L193.858 17.1373L194.315 9.18164ZM194.689 9.20312L202.631 9.8649L203.31 1.71634L195.146 1.24743L194.689 9.20312ZM194.688 9.22656L186.746 8.56479L186.027 17.1954H194.688V9.22656ZM194.689 9.22656V17.1954H202.159L202.642 9.74144L194.689 9.22656ZM194.691 9.20312L195.147 1.24733L188.826 0.885676L187.044 6.96132L194.691 9.20312ZM194.695 9.20312L195.153 1.24746L195.11 1.24499L195.067 1.24299L194.695 9.20312ZM194.709 9.2041L194.241 17.1592L194.247 17.1595L194.709 9.2041ZM194.759 9.20703L195.23 1.25219L195.23 1.25219L194.759 9.20703ZM194.95 9.21875L195.441 1.26507L195.441 1.26506L194.95 9.21875ZM195.688 9.2666L196.218 1.31545L196.218 1.31545L195.688 9.2666ZM198.511 9.4707L199.125 1.52561L199.125 1.52561L198.511 9.4707ZM208.972 10.416L209.779 2.48819L209.779 2.48819L208.972 10.416ZM244.525 15.2334L245.855 7.37626L245.855 7.37626L244.525 15.2334ZM337.268 42.9795L340.869 35.871V35.871L337.268 42.9795ZM445.573 108.673L451.036 102.871V102.871L445.573 108.673ZM499.341 230.852L507.272 230.078V230.078L499.341 230.852ZM409.843 382.464L413.885 389.332L413.885 389.331L409.843 382.464ZM165.434 423.884L166.265 415.958L165.964 415.927L165.661 415.918L165.434 423.884ZM161.096 423.688L160.604 431.642H160.604L161.096 423.688ZM10.5654 206L18.5191 206.491C25.446 94.3491 102.096 11.2479 186.25 16.4458L186.741 8.49219L187.232 0.538538C90.9519 -5.40843 9.84894 88.3447 2.61178 205.509L10.5654 206ZM186.741 8.49219L186.25 16.4458C188.638 16.5933 191.009 16.8101 193.364 17.0934L194.315 9.18164L195.267 1.26988C192.61 0.950215 189.931 0.705245 187.232 0.538538L186.741 8.49219ZM194.315 9.18164L193.858 17.1373L194.232 17.1588L194.689 9.20312L195.146 1.24743L194.772 1.22595L194.315 9.18164ZM194.689 9.20312L186.748 8.54135L186.746 8.56479L194.688 9.22656L202.629 9.88834L202.631 9.8649L194.689 9.20312ZM194.688 9.22656V17.1954H194.689V9.22656V1.25776H194.688V9.22656ZM194.689 9.22656L202.642 9.74144C202.641 9.75512 202.636 9.82967 202.627 9.92881C202.623 9.97358 202.612 10.0865 202.594 10.2307C202.584 10.3031 202.567 10.4301 202.539 10.5876C202.517 10.7099 202.458 11.0372 202.338 11.4449L194.691 9.20312L187.044 6.96132C186.925 7.36923 186.865 7.69678 186.844 7.81953C186.816 7.97742 186.798 8.10497 186.789 8.17813C186.77 8.32381 186.759 8.43898 186.755 8.48715C186.745 8.59307 186.739 8.67899 186.737 8.71169L194.689 9.22656ZM194.691 9.20312L194.236 17.1589C194.324 17.1639 194.399 17.1668 194.459 17.1685C194.519 17.1703 194.571 17.1711 194.613 17.1716C194.655 17.172 194.691 17.172 194.719 17.1719C194.748 17.1718 194.772 17.1716 194.791 17.1713C194.826 17.1709 194.854 17.1703 194.861 17.1702C194.865 17.1701 194.869 17.17 194.868 17.17C194.868 17.17 194.867 17.17 194.866 17.1701C194.864 17.1701 194.862 17.1701 194.86 17.1702C194.85 17.1704 194.829 17.1708 194.803 17.1712C194.776 17.1715 194.739 17.1719 194.696 17.1719C194.653 17.1719 194.6 17.1716 194.538 17.1704C194.478 17.1692 194.405 17.1671 194.324 17.1633L194.695 9.20312L195.067 1.24299C194.985 1.23916 194.912 1.23703 194.851 1.23583C194.79 1.23463 194.736 1.23428 194.692 1.23429C194.649 1.2343 194.612 1.23467 194.584 1.23505C194.558 1.23541 194.536 1.23584 194.527 1.23605C194.522 1.23615 194.518 1.23624 194.518 1.23624C194.516 1.23627 194.52 1.23618 194.524 1.2361C194.531 1.23595 194.558 1.23537 194.593 1.23494C194.612 1.23471 194.636 1.23447 194.665 1.23437C194.693 1.23428 194.729 1.23431 194.771 1.23472C194.812 1.23513 194.864 1.23597 194.924 1.23772C194.984 1.23946 195.059 1.24233 195.147 1.24733L194.691 9.20312ZM194.695 9.20312L194.238 17.1588C194.219 17.1577 194.202 17.1567 194.188 17.1558C194.174 17.1548 194.161 17.154 194.15 17.1532C194.129 17.1518 194.112 17.1506 194.102 17.1498C194.092 17.149 194.084 17.1485 194.082 17.1483C194.081 17.1482 194.08 17.1481 194.081 17.1482C194.081 17.1482 194.083 17.1483 194.084 17.1484C194.088 17.1487 194.094 17.1492 194.103 17.1499C194.112 17.1506 194.123 17.1514 194.137 17.1524C194.163 17.1542 194.199 17.1567 194.241 17.1592L194.709 9.2041L195.177 1.24903C195.216 1.25136 195.249 1.25361 195.273 1.25532C195.285 1.25617 195.295 1.25693 195.303 1.2575C195.31 1.25806 195.316 1.2585 195.318 1.25867C195.319 1.25876 195.32 1.25883 195.32 1.25879C195.32 1.25879 195.319 1.25876 195.319 1.25872C195.318 1.25868 195.318 1.25862 195.317 1.25855C195.314 1.25832 195.305 1.25764 195.294 1.25681C195.283 1.25599 195.265 1.25467 195.243 1.25317C195.232 1.25239 195.219 1.25151 195.204 1.25057C195.189 1.24962 195.172 1.24856 195.153 1.24746L194.695 9.20312ZM194.709 9.2041L194.247 17.1595C194.254 17.1599 194.268 17.1607 194.287 17.1619L194.759 9.20703L195.23 1.25219C195.207 1.25081 195.187 1.24962 195.171 1.24871L194.709 9.2041ZM194.759 9.20703L194.287 17.1619C194.318 17.1637 194.369 17.1669 194.46 17.1724L194.95 9.21875L195.441 1.26506C195.364 1.26034 195.286 1.2555 195.23 1.25219L194.759 9.20703ZM194.95 9.21875L194.459 17.1724C194.608 17.1816 194.84 17.1966 195.157 17.2178L195.688 9.2666L196.218 1.31545C195.89 1.29361 195.628 1.27658 195.441 1.26507L194.95 9.21875ZM195.688 9.2666L195.157 17.2178C195.779 17.2592 196.702 17.3234 197.896 17.4158L198.511 9.4707L199.125 1.52561C197.867 1.4283 196.888 1.36012 196.218 1.31545L195.688 9.2666ZM198.511 9.4707L197.896 17.4158C200.292 17.601 203.788 17.8982 208.165 18.3438L208.972 10.416L209.779 2.48819C205.263 2.02839 201.637 1.71987 199.125 1.52561L198.511 9.4707ZM208.972 10.416L208.164 18.3438C216.921 19.2354 229.185 20.72 243.196 23.0905L244.525 15.2334L245.855 7.37626C231.427 4.93518 218.806 3.40728 209.779 2.48819L208.972 10.416ZM244.525 15.2334L243.196 23.0905C271.313 27.8478 306.08 36.1111 333.666 50.088L337.268 42.9795L340.869 35.871C311.134 20.8052 274.491 12.2214 245.855 7.37626L244.525 15.2334ZM337.268 42.9795L333.666 50.088C376.16 71.618 412.616 88.5857 440.11 114.474L445.573 108.673L451.036 102.871C421.443 75.0057 382.331 56.8781 340.869 35.871L337.268 42.9795ZM445.573 108.673L440.11 114.474C467.271 140.05 485.841 174.564 491.41 231.626L499.341 230.852L507.272 230.078C501.385 169.755 481.4 131.463 451.036 102.871L445.573 108.673ZM499.341 230.852L491.41 231.626C496.847 287.348 465.968 340.184 405.801 375.596L409.843 382.464L413.885 389.331C477.937 351.633 513.461 293.5 507.272 230.078L499.341 230.852ZM409.843 382.464L405.801 375.596C349.254 408.877 267.061 426.532 166.265 415.958L165.434 423.884L164.602 431.809C267.962 442.651 353.754 424.722 413.885 389.332L409.843 382.464ZM165.434 423.884L165.661 415.918C164.304 415.879 162.946 415.819 161.587 415.735L161.096 423.688L160.604 431.642C162.144 431.737 163.678 431.806 165.206 431.849L165.434 423.884ZM161.096 423.688L161.587 415.735C77.433 410.537 11.5922 318.634 18.5191 206.491L10.5654 206L2.61178 205.509C-4.62525 322.673 64.3237 425.695 160.604 431.642L161.096 423.688Z" fill="white" mask="url(#path-1-outside-1_1348_3272)"/>
<path d="M188.784 13.4869C276.411 18.8995 343.142 113.988 336.126 227.569C329.11 341.149 251.185 427.302 163.557 421.889C75.9299 416.476 9.1989 321.389 16.2145 207.808C23.2302 94.2275 101.156 8.07442 188.784 13.4869Z" fill="white" stroke="#FB9912" stroke-width="6.80739"/>
<path d="M187.172 34.4278C188.05 32.3762 190.142 31.0998 192.359 31.3599C211.678 33.6267 229.708 43.4196 249.236 61.7285C250.972 63.3552 251.365 65.9544 250.232 68.0453L247.176 73.6819C246.646 74.6597 245.823 75.4464 244.822 75.9312L191.882 101.576C190.184 102.399 190.063 104.772 191.668 105.762L215.959 120.751C218.357 122.231 219.183 125.326 217.84 127.804L197.559 165.218C195.725 168.602 191.017 168.967 188.829 165.801C182.485 156.617 177.655 147.462 172.431 135.444C171.429 133.138 168.965 131.815 166.497 132.294L165.132 132.56C162.078 133.153 160.179 136.241 161.092 139.216C166.349 156.332 172.219 168.217 184.462 181.638C186.022 183.348 186.373 185.856 185.27 187.891L172.761 210.968C170.639 214.884 164.928 214.606 163.196 210.502L101.906 65.2784C100.868 62.8185 101.82 59.9642 104.138 58.6389C127.536 45.2602 147.348 36.4322 165.309 32.7676C169.472 31.9182 172.477 36.3125 170.735 40.1879C163.905 55.3864 161.965 68.0057 161.91 84.9466C161.899 88.0578 164.613 90.4614 167.708 90.1425L169.092 90.0003C171.593 89.7423 173.566 87.7606 173.855 85.2629C176.13 65.6226 179.443 52.478 187.172 34.4278Z" fill="#E75800"/>
<path d="M188.097 211.43C186.745 213.905 187.561 217.004 189.957 218.491L235.205 246.575C237.773 248.169 241.161 247.303 242.575 244.632C249.677 231.21 253.822 219.538 257.814 203.206C258.412 200.764 260.617 199.042 263.131 199.098L264.761 199.134C267.871 199.202 270.265 201.925 269.869 205.011C267.551 223.097 263.736 236.047 253.844 251.577C252.213 254.137 252.916 257.567 255.496 259.168L296.453 284.589C299.509 286.485 303.538 284.815 304.385 281.32C329.218 178.749 316.073 136.308 270.316 76.3899C268 73.3576 263.34 73.7372 261.51 77.0853L188.097 211.43ZM274.066 155.862C276.762 155.913 278.907 158.14 278.855 160.836C278.74 166.919 278.241 170.465 276.826 176.478C276.209 179.102 273.581 180.729 270.957 180.111C268.333 179.494 266.706 176.866 267.323 174.242C268.598 168.823 268.992 165.967 269.093 160.65C269.144 157.955 271.371 155.811 274.066 155.862Z" fill="#E75800"/>
<path d="M150.856 215.152C151.844 217.517 151.003 220.249 148.858 221.649L137.256 229.221C135.364 230.457 132.891 230.367 131.138 228.94C124.376 223.438 118.164 217.367 111.132 209.666C109.436 207.809 106.677 207.357 104.497 208.61L103.255 209.325C100.558 210.877 99.7624 214.413 101.59 216.931C106.53 223.735 111.224 229.409 116.457 234.418C119.058 236.908 118.832 241.248 115.818 243.215L54.1966 283.439C51.1422 285.433 47.0327 283.823 46.1837 280.275C40.1624 255.116 36.7096 233.359 35.619 213.953C35.3329 208.863 42.0499 206.457 45.7105 210.006C49.0448 213.238 52.7097 216.389 56.8096 219.656C59.2429 221.595 62.8117 220.959 64.4824 218.334L65.252 217.125C66.6021 215.004 66.2738 212.227 64.4951 210.45C52.9751 198.942 45.3321 189.609 37.7734 177.063C37.161 176.047 36.9166 174.848 37.0844 173.673C39.4373 157.204 44.0017 142.298 50.5741 127.904C52.4949 123.697 58.5066 124.09 60.437 128.292C66.5908 141.688 74.19 151.06 85.5439 161.771C87.8072 163.906 91.4171 163.57 93.3008 161.094L94.168 159.953C95.6904 157.952 95.5942 155.158 93.9697 153.238C80.5671 137.405 73.1401 125.614 64.8051 106.109C64.1301 104.53 64.2736 102.715 65.1948 101.266C70.6893 92.6193 76.8844 83.9188 83.7332 74.9248C86.1912 71.6969 91.202 72.3733 92.7661 76.1169L150.856 215.152Z" fill="#E75800"/>
<path d="M206.594 244.384C191.594 234.932 172.032 245.547 171.779 263.275L171.211 303.174C171.179 305.384 172.519 307.382 174.576 308.192L188.491 313.672C192.573 315.28 197.043 315.631 201.326 314.683C206.089 313.628 210.39 311.001 213.516 307.245C216.946 303.124 218.784 297.883 218.666 292.534L218.629 290.843C218.579 288.598 220.359 286.738 222.604 286.689C224.848 286.639 226.709 288.418 226.759 290.663L226.795 292.355C226.956 299.676 224.444 306.826 219.766 312.447C215.492 317.582 209.614 321.176 203.083 322.622C197.219 323.92 191.101 323.439 185.512 321.238L178.184 318.352C174.728 316.991 170.978 319.505 170.925 323.219L170.132 378.835C170.117 379.836 170.168 380.82 170.277 381.782C170.514 383.857 172.247 385.36 174.309 385.691L214.166 392.075C215.256 392.249 216.374 392.082 217.359 391.585C231.757 384.317 243.736 376.144 253.868 366.44C255.609 364.772 257.295 363.059 258.928 361.298C261.151 358.902 260.505 355.068 257.428 353.967C254.613 352.959 251.647 352.35 248.492 352.107C238.83 351.364 226.998 354.024 211.843 360.199C209.669 361.085 207.167 360.096 206.239 357.941C205.31 355.784 206.306 353.278 208.48 352.39C224.201 345.968 237.532 342.74 249.143 343.632C254.51 344.045 259.423 345.33 263.961 347.485C266.491 348.686 269.61 348.137 271.173 345.812C272.542 343.776 273.867 341.683 275.153 339.531C275.312 339.264 275.447 338.983 275.555 338.691C279.111 329.048 280.597 318.64 278.183 308.159C275.391 296.039 267.38 283.809 251.295 272.548L206.594 244.384Z" fill="#E75800"/>
<path d="M151.457 234.576C155.201 232.086 160.202 234.822 160.124 239.318L157.325 399.926C157.261 403.586 153.738 406.198 150.229 405.134C146.349 403.958 142.628 402.757 139.054 401.53C137.123 400.867 135.761 399.129 135.562 397.098C133.244 373.426 134.1 359.02 138.803 337.346C139.336 334.888 138.108 332.375 135.824 331.323L134.492 330.71C131.666 329.409 128.321 330.806 127.325 333.754C120.36 354.372 118.6 369.279 123.336 394.148C123.443 394.709 122.844 395.338 122.32 395.112C111.104 390.282 101.61 384.953 93.4038 378.846C92.2452 377.984 91.516 376.665 91.3707 375.229C88.9008 350.815 89.703 336.287 94.4873 314.237C95.0205 311.78 93.7934 309.267 91.5098 308.215L90.1777 307.602C87.3518 306.3 84.0067 307.698 83.0107 310.646C78.5801 323.76 76.2565 334.564 76.3708 347.092C76.4189 352.37 70.0062 355.118 67.118 350.7C59.5307 339.095 53.2721 325.416 47.251 308.982C46.3705 306.579 47.2626 303.876 49.3926 302.459L100.778 268.282C104.902 265.539 110.581 269.542 109.955 274.456C109.27 279.838 108.979 285.464 108.937 291.666C108.915 294.777 111.62 297.191 114.716 296.884L116.175 296.738C118.677 296.49 120.657 294.516 120.956 292.02C122.942 275.407 125.649 263.419 131.117 249.251C131.508 248.24 132.207 247.379 133.109 246.779L151.457 234.576Z" fill="#E75800"/>
</svg>