<svg width="617" height="111" viewBox="0 0 617 111" fill="none" xmlns="http://www.w3.org/2000/svg">
<path d="M28.1112 87.0841L26.414 52.8303L72.8572 2.99251H106.494L60.2049 53.1388L43.2323 70.8829L28.1112 87.0841ZM0.800748 111V2.99251H31.0428V111H0.800748ZM73.3201 111L38.1405 66.4083L58.0447 45.1154L108.808 111H73.3201ZM124.996 111L89.9708 2.99251H121.447L150.918 96.4961H135.025L166.039 2.99251H194.121L223.437 96.4961H208.162L238.558 2.99251H267.72L232.695 111H199.984L174.988 31.5373H183.783L157.707 111H124.996ZM249.595 111L297.273 2.99251H327.361L375.193 111H343.408L306.068 17.9593H318.103L280.763 111H249.595ZM275.671 90.0157L283.54 67.4884H336.31L344.179 90.0157H275.671ZM371.51 111V2.99251H396.66L441.406 76.4376H428.137L471.648 2.99251H496.799L497.107 111H469.025L468.717 45.7326H473.5L440.943 100.354H427.365L393.883 45.7326H399.746V111H371.51Z" fill="#FB9912"/>
<path d="M532.768 111V91.8672L573.193 54.0646C576.074 51.3902 578.182 49.0243 579.52 46.967C580.96 44.9097 581.885 43.0581 582.297 41.4123C582.811 39.6636 583.068 38.0692 583.068 36.6291C583.068 33.1317 581.885 30.4058 579.52 28.4514C577.257 26.497 573.811 25.5198 569.182 25.5198C565.273 25.5198 561.621 26.3941 558.227 28.1428C554.832 29.8915 552.055 32.5146 549.895 36.0119L527.213 23.3596C531.225 16.5706 537.037 11.1188 544.649 7.00422C552.261 2.88965 561.364 0.832362 571.959 0.832362C580.291 0.832362 587.594 2.1696 593.869 4.84407C600.144 7.51854 605.03 11.3245 608.527 16.262C612.128 21.1995 613.928 27.0113 613.928 33.6975C613.928 37.1949 613.465 40.6923 612.539 44.1897C611.613 47.5842 609.813 51.2359 607.139 55.1447C604.567 58.9507 600.71 63.2195 595.566 67.9513L563.473 97.5762L558.381 86.7755H616.859V111H532.768Z" fill="#5CA90C"/>
</svg>
