<svg xmlns="http://www.w3.org/2000/svg" id="Layer_1" data-name="Layer 1" viewBox="0 0 140.66 236.27">
  <defs>
    <style>
      .cls-1 {
        fill-rule: evenodd;
      }
    </style>
  </defs>
  <path d="M0,128.28v-4.78h75.99v4.78H0ZM0,236.27v-4.78h71.09v4.78H0ZM20.84,236.27v-125.39c0-10.7,1.82-20.69,5.45-29.97,3.64-9.27,9.03-16.75,16.18-22.43,7.15-5.68,16.04-8.52,26.66-8.52,6.62,0,12.15,1.23,16.61,3.68,4.45,2.45,7.82,5.54,10.11,9.25,2.29,3.72,3.43,7.5,3.43,11.34,0,4.98-1.41,8.76-4.23,11.34-2.82,2.57-6.11,3.86-9.87,3.86-2.04,0-4.11-.43-6.19-1.29s-3.84-2.27-5.27-4.23c-1.43-1.96-2.15-4.58-2.15-7.84,0-4.33,1.51-7.68,4.54-10.05,3.02-2.37,6.04-3.55,9.07-3.55,2.21,0,4.37.47,6.5,1.41,2.12.94,3.88,2.29,5.27,4.04,1.39,1.76,2.08,3.86,2.08,6.31h-4.66c0-3.35-1.04-6.52-3.12-9.5-2.08-2.98-5.03-5.39-8.82-7.23-3.8-1.84-8.23-2.76-13.3-2.76-6.54,0-11.73,1.94-15.57,5.82-3.84,3.88-6.58,9.48-8.21,16.79-1.64,7.31-2.45,16.16-2.45,26.54v132.38h-22.06Z"/>
  <path d="M102.64,81.27c3.01,1.78,6.79,2.46,10.59,1.64,3.81-.83,6.95-3.02,8.93-5.9,2-2.88,2.84-6.44,2.06-10-.79-3.56-3.04-6.44-6.05-8.22-3-1.8-6.78-2.48-10.59-1.64-3.8.83-6.94,3.02-8.93,5.9-.03.04-.05.07-.07.12,2.36,2.2,4.09,5.06,4.81,8.38.74,3.32.36,6.65-.87,9.63.04.02.08.06.12.08Z"/>
  <path d="M95,105.55c3,1.78,6.78,2.47,10.59,1.64,3.8-.83,6.94-3.02,8.92-5.9,2-2.88,2.84-6.44,2.06-10-.39-1.78-1.15-3.4-2.2-4.79-.11.04-.22.06-.34.09-4.81,1.05-9.56.22-13.39-2-2.57,3.61-6.54,6.35-11.35,7.4-.11.02-.24.05-.35.08-.36,1.7-.38,3.49,0,5.27.79,3.56,3.04,6.44,6.05,8.22Z"/>
  <path d="M127.23,75.87c-.46,1.09-1.02,2.13-1.71,3.12-1.77,2.56-4.24,4.71-7.23,6.13,1.02,1.59,1.79,3.37,2.21,5.31.77,3.54.31,7.1-1.14,10.23,2.91,1.55,6.45,2.11,10.03,1.33,3.81-.85,6.95-3.04,8.93-5.92,2-2.87,2.84-6.44,2.05-10-.77-3.54-3.02-6.43-6.03-8.21-2.09-1.24-4.52-1.96-7.1-2Z"/>
  <path d="M77.9,86.67c3.02,1.79,6.78,2.48,10.59,1.65,3.79-.84,6.93-3.03,8.93-5.92,1.98-2.87,2.82-6.44,2.05-10-.77-3.54-3.03-6.43-6.03-8.21-3.01-1.79-6.78-2.48-10.59-1.65-3.81.85-6.95,3.04-8.93,5.9-2,2.88-2.84,6.46-2.06,10,.79,3.56,3.04,6.44,6.05,8.22Z"/>
  <path d="M124.84,130.02c-.4.12-.81.22-1.24.32-4.81,1.05-9.56.22-13.39-1.98-2.57,3.59-6.54,6.34-11.35,7.4-.43.09-.84.17-1.25.23.03.73.12,1.45.28,2.19.78,3.56,3.04,6.44,6.03,8.22,3.02,1.79,6.78,2.48,10.59,1.64,3.81-.83,6.95-3.02,8.93-5.9,2-2.88,2.84-6.44,2.05-10-.16-.74-.38-1.43-.66-2.11Z"/>
  <path d="M133.8,110.75c-.45-2.01-1.38-3.83-2.63-5.34-.32.1-.66.17-.99.25-4.57,1.01-9.1.3-12.83-1.67-1.77,2.31-4.13,4.23-6.93,5.53,1.2,1.71,2.08,3.66,2.55,5.81.74,3.32.36,6.64-.87,9.63.04.02.08.05.11.07,3.01,1.79,6.8,2.48,10.59,1.64,3.81-.83,6.95-3.02,8.93-5.9,2-2.88,2.84-6.44,2.06-10Z"/>
  <path d="M107,126.17c1.98-2.88,2.82-6.44,2.05-10-.44-2.02-1.36-3.82-2.61-5.32h-.05c-4.59,1.01-9.11.3-12.84-1.66-2.57,3.35-6.4,5.88-10.97,6.87-.33.07-.66.14-.98.2-.53,1.9-.61,3.92-.17,5.95.79,3.56,3.03,6.43,6.05,8.22,3.01,1.78,6.78,2.47,10.59,1.64,3.8-.83,6.93-3.03,8.93-5.9Z"/>
  <path d="M90.34,107.01c-2.62-2.25-4.53-5.28-5.31-8.83-.42-1.94-.48-3.87-.2-5.75-3.31-.05-6.46-.95-9.15-2.54-1.03-.62-1.99-1.32-2.86-2.14-2.31,1.12-4.25,2.79-5.61,4.78-2,2.87-2.84,6.44-2.05,10,.77,3.54,3.02,6.43,6.03,8.21,3.01,1.79,6.78,2.48,10.59,1.65,3.57-.79,6.56-2.77,8.55-5.39Z"/>
  <path class="cls-1" d="M134.75,25.78c-.78-.03-1.66.18-2.61.75-.76.43-4.42,1.5-4.92.66-.36-.61,1.5-1.44,1.88-1.66,2.24-1.22,4.98-2.69,6.29-6.47,1.49-4.31,1.83-13.61-1.12-17.02-3.63-4.18-13.62-1.07-17.92,1.6-4.02,2.48-5.35,5.17-6.35,7.19-.52,1.06-.88,1.79-1.61,1.82-.53.03-.34-1.62-.33-2.01.19-4.03-1.68-6.02-6.03-4.87-4.6,1.2-8.86,4.81-10.61,9.1-1.15,2.8-1.43,5.86-.89,8.5.56,2.83,2.04,3.91,3.25,4.79.46.35.83.61.67,1.14-.12.4-.53.21-.84.14-1.88-.45-3.53-1.64-5.02.82-.65,1.08-.76,2.88-.22,4.73,1.34,4.65,5.11,7.23,9.69,7.06-2.24,2.64-4.47,4.6-6.67,6.16-2.67,1.89-5.4,3.21-8.12,4.39-.9.58-1.92,1.03-3.05,1.33-.77.43-1.59.79-2.51,1.04-.11.14-.24.26-.36.4,3.11.2,5.52,1.41,7.3,3.16.47.21.91.45,1.34.71.65-1.59,1.6-3.05,2.89-4.21-.02-.01-.05-.02-.07-.04.11-.06.22-.12.33-.18.91-.77,1.98-1.4,3.19-1.85.58-.36,1.15-.71,1.73-1.12,2.57-1.8,5.15-4.1,7.73-7.16.17.78.44,1.49.75,2.12,2.1,4.15,10.07,7.06,13.77,3.58,1.58-1.5,1.65-3,1.71-4.43.02-.34.04-.65.1-.92,1.09.34,2.84.78,4.82.88,5.71.28,13.33-1.99,14.85-15.61.24-2.07-.6-4.43-3.06-4.55Z"/>
</svg>