<svg width="194" height="237" viewBox="0 0 194 237" fill="none" xmlns="http://www.w3.org/2000/svg">
<path d="M103.62 144.6L103.99 233.36" stroke="black" stroke-width="2" stroke-miterlimit="10"/>
<path d="M69.5901 44.75V233.36" stroke="black" stroke-width="2" stroke-miterlimit="10"/>
<path d="M58.8301 53.5801V233.36" stroke="black" stroke-miterlimit="10"/>
<path d="M48.4001 67.3999L48.0701 233.36" stroke="black" stroke-miterlimit="10"/>
<path d="M37.3101 128.82H69.5901" stroke="black" stroke-width="2" stroke-miterlimit="10"/>
<path d="M37.3101 213.94H89.4601" stroke="black" stroke-width="2" stroke-miterlimit="10"/>
<path d="M123.9 44.75V233.36" stroke="black" stroke-width="2" stroke-miterlimit="10"/>
<path d="M145.93 67.3999V233.36" stroke="black" stroke-miterlimit="10"/>
<path d="M135.17 53.5801V233.36" stroke="black" stroke-miterlimit="10"/>
<path d="M123.9 128.82H156.69" stroke="black" stroke-width="2" stroke-miterlimit="10"/>
<path d="M103.95 213.94H156.69" stroke="black" stroke-width="2" stroke-miterlimit="10"/>
<path d="M123.75 145.53H102.62" stroke="black" stroke-width="2" stroke-miterlimit="10"/>
<path d="M91.1901 128.68L69.5901 128.85" stroke="black" stroke-width="2" stroke-miterlimit="10"/>
<path d="M123.9 129.06L102.6 128.84" stroke="black" stroke-width="2" stroke-miterlimit="10"/>
<path d="M89.5 145L89.54 233.45" stroke="black" stroke-width="2" stroke-miterlimit="10"/>
<path d="M69.5901 145.96H90.4501" stroke="black" stroke-width="2" stroke-miterlimit="10"/>
<path d="M69.9099 128.6V146.17" stroke="black" stroke-miterlimit="10"/>
<path d="M123.75 128.69V145.96" stroke="black" stroke-miterlimit="10"/>
<path d="M103.38 129.85V36.3301" stroke="black" stroke-width="2" stroke-miterlimit="10"/>
<path d="M90.26 36.4099L90.25 129.68" stroke="black" stroke-width="2" stroke-miterlimit="10"/>
<path d="M103.48 107.11L90.03 107.12" stroke="black" stroke-width="2" stroke-miterlimit="10"/>
<path d="M113.28 146.14V233.36" stroke="black" stroke-miterlimit="10"/>
<path d="M79.52 145.52V233.36" stroke="black" stroke-miterlimit="10"/>
<path d="M79.8501 39.6101V128" stroke="black" stroke-miterlimit="10"/>
<path d="M113.64 40.0901V128.85" stroke="black" stroke-miterlimit="10"/>
<path d="M156.69 233.36V108.6C156.69 67.8799 130.17 36.4099 97.3901 36.4099C64.1801 36.4099 37.3201 67.8699 37.3201 108.6V233.36" stroke="black" stroke-width="2" stroke-miterlimit="10"/>
<path d="M156.69 133.11V150.38" stroke="black" stroke-width="4" stroke-miterlimit="10"/>
<path d="M156.69 188.98V206.25" stroke="black" stroke-width="4" stroke-miterlimit="10"/>
<path d="M103.96 31.66V0.51001L92.2 0.51001V31.66H103.96Z" fill="black" stroke="black" stroke-miterlimit="10"/>
<path d="M119.419 35.0562L126.849 4.80542L115.428 2.00026L107.998 32.2511L119.419 35.0562Z" fill="black" stroke="black" stroke-miterlimit="10"/>
<path d="M132.613 42.4773L146.375 14.5325L135.825 9.33667L122.063 37.2815L132.613 42.4773Z" fill="black" stroke="black" stroke-miterlimit="10"/>
<path d="M143.074 52.9814L165.101 30.9551L156.785 22.6395L134.759 44.6659L143.074 52.9814Z" fill="black" stroke="black" stroke-miterlimit="10"/>
<path d="M151.991 65.0128L178.358 48.4275L172.097 38.473L145.729 55.0583L151.991 65.0128Z" fill="black" stroke="black" stroke-miterlimit="10"/>
<path d="M156.965 77.4723L186.077 66.3904L181.893 55.3997L152.781 66.4816L156.965 77.4723Z" fill="black" stroke="black" stroke-miterlimit="10"/>
<path d="M159.945 90.6743L190.473 84.48L188.135 72.9548L157.607 79.1492L159.945 90.6743Z" fill="black" stroke="black" stroke-miterlimit="10"/>
<path d="M161.692 105.875L192.808 104.413L192.256 92.6658L161.14 94.1277L161.692 105.875Z" fill="black" stroke="black" stroke-miterlimit="10"/>
<path d="M87.7287 32.2643L80.2983 2.01343L68.8778 4.81858L76.3081 35.0694L87.7287 32.2643Z" fill="black" stroke="black" stroke-miterlimit="10"/>
<path d="M72.6782 37.3091L58.9155 9.36426L48.3656 14.56L62.1283 42.5049L72.6782 37.3091Z" fill="black" stroke="black" stroke-miterlimit="10"/>
<path d="M59.9734 44.6817L37.947 22.6553L29.6314 30.9709L51.6578 52.9972L59.9734 44.6817Z" fill="black" stroke="black" stroke-miterlimit="10"/>
<path d="M48.9867 55.0562L22.6191 38.4709L16.3577 48.4255L42.7253 65.0107L48.9867 55.0562Z" fill="black" stroke="black" stroke-miterlimit="10"/>
<path d="M41.9742 66.5184L12.8621 55.4365L8.67833 66.4271L37.7904 77.5091L41.9742 66.5184Z" fill="black" stroke="black" stroke-miterlimit="10"/>
<path d="M37.1109 79.1423L6.58301 72.948L4.24447 84.4731L34.7724 90.6675L37.1109 79.1423Z" fill="black" stroke="black" stroke-miterlimit="10"/>
<path d="M33.5854 94.1375L2.46973 92.6755L1.9178 104.423L33.0335 105.885L33.5854 94.1375Z" fill="black" stroke="black" stroke-miterlimit="10"/>
<path d="M32.95 110.06H1.80005V121.82H32.95V110.06Z" fill="black" stroke="black" stroke-miterlimit="10"/>
<path d="M1.9899 137.26H33.1399V125.5H1.9899V137.26Z" fill="black" stroke="black" stroke-miterlimit="10"/>
<path d="M2.18007 153.7H33.3301V141.94H2.18007V153.7Z" fill="black" stroke="black" stroke-miterlimit="10"/>
<path d="M1.79996 170.14H32.95V158.38H1.79996V170.14Z" fill="black" stroke="black" stroke-miterlimit="10"/>
<path d="M1.9899 186.59H33.1399V174.83H1.9899V186.59Z" fill="black" stroke="black" stroke-miterlimit="10"/>
<path d="M1.60001 203.03H32.75V191.27H1.60001V203.03Z" fill="black" stroke="black" stroke-miterlimit="10"/>
<path d="M1.79996 219.47H32.95V207.71H1.79996V219.47Z" fill="black" stroke="black" stroke-miterlimit="10"/>
<path d="M1.41005 235.91H32.5601V224.15H1.41005V235.91Z" fill="black" stroke="black" stroke-miterlimit="10"/>
<path d="M192.55 109.56H161.4V121.32H192.55V109.56Z" fill="black" stroke="black" stroke-miterlimit="10"/>
<path d="M161.59 136.75H192.74V124.99H161.59V136.75Z" fill="black" stroke="black" stroke-miterlimit="10"/>
<path d="M161.79 153.2H192.94V141.44H161.79V153.2Z" fill="black" stroke="black" stroke-miterlimit="10"/>
<path d="M161.4 169.63H192.55V157.87H161.4V169.63Z" fill="black" stroke="black" stroke-miterlimit="10"/>
<path d="M161.59 186.08H192.74V174.32H161.59V186.08Z" fill="black" stroke="black" stroke-miterlimit="10"/>
<path d="M161.21 202.52H192.36V190.76H161.21V202.52Z" fill="black" stroke="black" stroke-miterlimit="10"/>
<path d="M161.4 218.97H192.55V207.21H161.4V218.97Z" fill="black" stroke="black" stroke-miterlimit="10"/>
<path d="M161.01 235.4H192.16V223.64H161.01V235.4Z" fill="black" stroke="black" stroke-miterlimit="10"/>
</svg>
