<svg xmlns:inkscape="http://www.inkscape.org/namespaces/inkscape" xmlns:sodipodi="http://sodipodi.sourceforge.net/DTD/sodipodi-0.dtd" xmlns="http://www.w3.org/2000/svg" xmlns:svg="http://www.w3.org/2000/svg" version="1.1" id="svg1" width="1000" height="1000" viewBox="0 0 1000 1000" sodipodi:docname="Logo-(gate,-white-back).png">
  <defs id="defs1"/>
  <sodipodi:namedview id="namedview1" pagecolor="#ffffff" bordercolor="#000000" borderopacity="0.25" inkscape:showpageshadow="2" inkscape:pageopacity="0.0" inkscape:pagecheckerboard="0" inkscape:deskcolor="#d1d1d1"/>
  <g inkscape:groupmode="layer" inkscape:label="Image" id="g1">
    <path style="fill:#000000" d="M 728,749.72804 723.5,747.5 464,747 l -259.5,-0.5 9.08999,-4.6816 c 17.15287,-8.83421 29.24588,-17.04802 32.24377,-21.90059 3.54144,-5.73241 5.73097,-108.64582 8.19875,-385.36328 0.5638,-63.22001 1.12463,-115.02734 1.24629,-115.1274 0.12166,-0.10006 6.12373,-0.65323 13.33794,-1.22927 20.54055,-1.64012 21.91518,-0.99785 37.07577,17.32305 5.47103,6.6115 12.83968,15.1615 16.37476,19 14.65036,15.90781 55.02423,58.60101 77.5106,81.9633 13.24282,13.75869 37.23907,38.74079 53.32499,55.51579 16.08592,16.775 29.86071,30.64017 30.61065,30.81148 0.74994,0.17132 1.50369,0.92071 1.67501,1.66531 0.17131,0.7446 18.77597,20.40443 41.34369,43.68852 22.56771,23.28408 43.44549,44.92219 46.39506,48.08469 2.94956,3.1625 6.16627,5.75 7.14824,5.75 0.99977,0 1.926,0.86473 2.10494,1.96517 0.34659,2.13144 73.29902,77.56552 101.98508,105.45434 16.65924,16.19625 23.83509,21.9132 25.46248,20.28581 1.7378,-1.7378 2.42583,-15.88462 3.34151,-68.70532 1.24809,-71.99627 1.25512,-165.57146 0.0183,-244 -1.03833,-65.84406 -1.85197,-80.36968 -4.78305,-85.39006 -3.14049,-5.37905 -12.71339,-12.05741 -29.9933,-20.92429 -9.19133,-4.71637 -17.60583,-9.23463 -18.69888,-10.04059 -1.89052,-1.39395 -1.79304,-1.5063 2,-2.30522 6.20486,-1.3069 121.23476,-0.96061 132.85157,0.39994 5.42532,0.63542 10.15032,1.44424 10.5,1.79739 1.24563,1.25798 -5.56842,5.60471 -19.47726,12.42468 -20.63292,10.11701 -24.18657,14.97416 -27.85701,38.07509 -3.43329,21.60835 -3.75468,41.5758 -4.22054,262.21306 L 752.84747,752 742.67372,751.978 c -8.47896,-0.0183 -10.92339,-0.39312 -14.67376,-2.25 z M 329,724.91255 v -14.08744 l 5,5.98387 5,5.98386 V 730.89642 739 h 92 92 v -13.49769 -13.49768 l 3.75,-5.21973 3.75,-5.21972 V 636.5 571.43482 l -3.75,-5.21972 c -3.7462,-5.21444 -3.75002,-5.23011 -3.76531,-15.46741 -0.008,-5.63623 -0.35884,-10.78812 -0.77871,-11.44864 -0.41986,-0.66053 -8.96297,-9.50596 -18.98469,-19.65651 L 485,501.18698 v 13.40651 C 485,521.96707 484.81231,528 484.58291,528 c -0.22941,0 -2.47941,-0.88401 -5,-1.96446 L 475,524.07107 V 507.27592 490.48077 L 455.5,471 436,451.51923 V 482.75962 514 h -5 -5 V 477.30033 440.60066 L 406.00676,420.55033 386.01351,400.5 l -0.007,60.05153 -0.007,60.05153 -5,2.11244 -5,2.11244 v -67.17411 -67.1741 L 357.5,372 339,353.52027 v 98.34345 98.34344 l -5,5.98386 -5,5.98387 V 452.97173 343.76857 l -12.25,-11.71092 c -17.01076,-16.26218 -20.69322,-19.44718 -21.52643,-18.61842 -1.568,1.55962 -2.09251,31.08283 -2.7637,155.56077 -0.73307,135.95221 0.27252,217.88601 2.91722,237.69066 1.18233,8.85379 1.77708,10.71618 4.53364,14.19662 5.76982,7.285 22.06273,18.0735 27.33927,18.10295 1.58431,0.009 1.75,-1.32401 1.75,-14.07768 z m 79,12.47022 c -12.75354,-1.6173 -23.8333,-5.18238 -37.40707,-12.03629 -36.42167,-18.39067 -57.99367,-47.30129 -60.45986,-81.02782 -2.1989,-30.07124 6.67081,-53.27861 28.80277,-75.3617 23.82214,-23.76953 56.92406,-37.87827 96.30492,-41.04718 16.92932,-1.36228 34.0778,0.0922 57.75924,4.89895 l 18.5,3.75504 0.62579,6.96812 C 513.74005,561.50654 512.68675,573 509.42523,573 c -1.87257,0 -4.13064,-3.65845 -5.91261,-9.57942 -0.81449,-2.70632 -2.38708,-6.39238 -3.49463,-8.19126 -4.58595,-7.4484 -17.26694,-12.00241 -39.44167,-14.16432 -43.54,-4.24491 -76.81645,5.02049 -101.19308,28.17591 -18.37439,17.45387 -26.78221,37.00403 -26.77538,62.25909 0.004,13.30295 2.16779,24.26665 7.31495,37.05711 5.58257,13.87243 9.59738,19.95974 20.07719,30.4413 17.41643,17.41935 36.36606,25.61424 65.26223,28.22309 14.32313,1.29315 34.54752,0.046 45.23777,-2.78959 8.52469,-2.26118 18.06823,-7.17612 21.48051,-11.06249 3.81053,-4.33996 4.28357,-7.36056 3.84238,-24.53552 -0.32004,-12.45817 -0.65947,-14.88441 -2.59387,-18.54076 -2.26408,-4.2795 -8.04289,-8.49522 -13.47902,-9.83314 -5.71551,-1.40667 -2.28998,-2.27508 11.74114,-2.97649 C 509.69085,656.5737 529,657.62787 529,659.53126 c 0,0.73368 -0.85974,1.60684 -1.91054,1.94035 -5.2093,1.65337 -7.49198,11.11569 -9.58887,39.74856 -0.81684,11.15391 -1.48864,20.78592 -1.49288,21.40447 -0.01,1.45799 -16.00989,7.03412 -26.96331,9.39699 -14.14841,3.0521 -35.36357,5.07996 -57.0444,5.45262 -11.275,0.19379 -22.075,0.15263 -24,-0.0915 z M 576,666.89111 V 594.78222 L 558.86816,576.89111 C 549.44565,567.051 541.34565,559 540.86816,559 c -1.00641,0 -1.20678,178.32805 -0.20149,179.33333 0.36666,0.36667 8.46666,0.66667 18,0.66667 H 576 Z m 46,23.93069 v -48.1782 l -7.72037,-8.0718 c -4.24621,-4.43949 -12.34621,-12.87765 -18,-18.75148 L 586,605.14065 V 672.07032 739 h 18 18 z m 39.98336,20.9282 -0.0166,-27.25 -14.9337,-15.5 -14.93371,-15.5 -0.0497,42.75 L 632,739 h 15 15 z M 712,738.30074 c 0,-0.38459 -5.0818,-5.89709 -11.29288,-12.25 -6.21108,-6.35291 -15.21108,-15.80255 -20,-20.9992 L 672,695.60308 V 717.30154 739 h 20 c 11,0 20,-0.31467 20,-0.69926 z" id="path2"/>
    <path style="fill:#000000" d="M 728,749.72804 723.5,747.5 464,747 l -259.5,-0.5 9.08999,-4.6816 c 17.15287,-8.83421 29.24588,-17.04802 32.24377,-21.90059 3.54144,-5.73241 5.73097,-108.64582 8.19875,-385.36328 0.5638,-63.22001 1.12463,-115.02734 1.24629,-115.1274 0.12166,-0.10006 6.12373,-0.65323 13.33794,-1.22927 20.54055,-1.64012 21.91518,-0.99785 37.07577,17.32305 5.47103,6.6115 12.83968,15.1615 16.37476,19 14.65036,15.90781 55.02423,58.60101 77.5106,81.9633 13.24282,13.75869 37.23907,38.74079 53.32499,55.51579 16.08592,16.775 29.86071,30.64017 30.61065,30.81148 0.74994,0.17132 1.50369,0.92071 1.67501,1.66531 0.17131,0.7446 18.77597,20.40443 41.34369,43.68852 22.56771,23.28408 43.44549,44.92219 46.39506,48.08469 2.94956,3.1625 6.16627,5.75 7.14824,5.75 0.99977,0 1.926,0.86473 2.10494,1.96517 0.34659,2.13144 73.29902,77.56552 101.98508,105.45434 16.65924,16.19625 23.83509,21.9132 25.46248,20.28581 1.7378,-1.7378 2.42583,-15.88462 3.34151,-68.70532 1.24809,-71.99627 1.25512,-165.57146 0.0183,-244 -1.03833,-65.84406 -1.85197,-80.36968 -4.78305,-85.39006 -3.14049,-5.37905 -12.71339,-12.05741 -29.9933,-20.92429 -9.19133,-4.71637 -17.60583,-9.23463 -18.69888,-10.04059 -1.89052,-1.39395 -1.79304,-1.5063 2,-2.30522 6.20486,-1.3069 121.23476,-0.96061 132.85157,0.39994 5.42532,0.63542 10.15032,1.44424 10.5,1.79739 1.24563,1.25798 -5.56842,5.60471 -19.47726,12.42468 -20.63292,10.11701 -24.18657,14.97416 -27.85701,38.07509 -3.43329,21.60835 -3.75468,41.5758 -4.22054,262.21306 L 752.84747,752 742.67372,751.978 c -8.47896,-0.0183 -10.92339,-0.39312 -14.67376,-2.25 z M 329,724.91255 v -14.08744 l 5,5.98387 5,5.98386 V 730.89642 739 h 92 92 v -13.49769 -13.49768 l 3.75,-5.21973 3.75,-5.21972 V 636.5 571.43482 l -3.75,-5.21972 c -3.7462,-5.21444 -3.75002,-5.23011 -3.76531,-15.46741 -0.008,-5.63623 -0.35884,-10.78812 -0.77871,-11.44864 -0.41986,-0.66053 -8.96297,-9.50596 -18.98469,-19.65651 L 485,501.18698 v 13.40651 C 485,521.96707 484.81231,528 484.58291,528 c -0.22941,0 -2.47941,-0.88401 -5,-1.96446 L 475,524.07107 V 507.27592 490.48077 L 455.5,471 436,451.51923 V 482.75962 514 h -5 -5 V 477.30033 440.60066 L 406.00676,420.55033 386.01351,400.5 l -0.007,60.05153 -0.007,60.05153 -5,2.11244 -5,2.11244 v -67.17411 -67.1741 L 357.5,372 339,353.52027 v 98.34345 98.34344 l -5,5.98386 -5,5.98387 V 452.97173 343.76857 l -12.25,-11.71092 c -17.01076,-16.26218 -20.69322,-19.44718 -21.52643,-18.61842 -1.568,1.55962 -2.09251,31.08283 -2.7637,155.56077 -0.73307,135.95221 0.27252,217.88601 2.91722,237.69066 1.18233,8.85379 1.77708,10.71618 4.53364,14.19662 5.76982,7.285 22.06273,18.0735 27.33927,18.10295 1.58431,0.009 1.75,-1.32401 1.75,-14.07768 z m 79,12.47022 c -12.75354,-1.6173 -23.8333,-5.18238 -37.40707,-12.03629 -36.42167,-18.39067 -57.99367,-47.30129 -60.45986,-81.02782 -2.1989,-30.07124 6.67081,-53.27861 28.80277,-75.3617 23.82214,-23.76953 56.92406,-37.87827 96.30492,-41.04718 16.92932,-1.36228 34.0778,0.0922 57.75924,4.89895 l 18.5,3.75504 0.62579,6.96812 C 513.74005,561.50654 512.68675,573 509.42523,573 c -1.87257,0 -4.13064,-3.65845 -5.91261,-9.57942 -0.81449,-2.70632 -2.38708,-6.39238 -3.49463,-8.19126 -4.58595,-7.4484 -17.26694,-12.00241 -39.44167,-14.16432 -43.54,-4.24491 -76.81645,5.02049 -101.19308,28.17591 -18.37439,17.45387 -26.78221,37.00403 -26.77538,62.25909 0.004,13.30295 2.16779,24.26665 7.31495,37.05711 5.58257,13.87243 9.59738,19.95974 20.07719,30.4413 17.41643,17.41935 36.36606,25.61424 65.26223,28.22309 14.32313,1.29315 34.54752,0.046 45.23777,-2.78959 8.52469,-2.26118 18.06823,-7.17612 21.48051,-11.06249 3.81053,-4.33996 4.28357,-7.36056 3.84238,-24.53552 -0.32004,-12.45817 -0.65947,-14.88441 -2.59387,-18.54076 -2.26408,-4.2795 -8.04289,-8.49522 -13.47902,-9.83314 -5.71551,-1.40667 -2.28998,-2.27508 11.74114,-2.97649 C 509.69085,656.5737 529,657.62787 529,659.53126 c 0,0.73368 -0.85974,1.60684 -1.91054,1.94035 -5.2093,1.65337 -7.49198,11.11569 -9.58887,39.74856 -0.81684,11.15391 -1.48864,20.78592 -1.49288,21.40447 -0.01,1.45799 -16.00989,7.03412 -26.96331,9.39699 -14.14841,3.0521 -35.36357,5.07996 -57.0444,5.45262 -11.275,0.19379 -22.075,0.15263 -24,-0.0915 z M 576,666.89111 V 594.78222 L 558.86816,576.89111 C 549.44565,567.051 541.34565,559 540.86816,559 c -1.00641,0 -1.20678,178.32805 -0.20149,179.33333 0.36666,0.36667 8.46666,0.66667 18,0.66667 H 576 Z m 46,23.93069 v -48.1782 l -7.72037,-8.0718 c -4.24621,-4.43949 -12.34621,-12.87765 -18,-18.75148 L 586,605.14065 V 672.07032 739 h 18 18 z m 39.98336,20.9282 -0.0166,-27.25 -14.9337,-15.5 -14.93371,-15.5 -0.0497,42.75 L 632,739 h 15 15 z M 712,738.30074 c 0,-0.38459 -5.0818,-5.89709 -11.29288,-12.25 -6.21108,-6.35291 -15.21108,-15.80255 -20,-20.9992 L 672,695.60308 V 717.30154 739 h 20 c 11,0 20,-0.31467 20,-0.69926 z" id="path1"/>
  </g>
</svg>