<svg xmlns="http://www.w3.org/2000/svg" id="Layer_1" data-name="Layer 1" viewBox="0 0 711.12 320.7">
  <path d="M396.59,304.61v-27.29l.03-.02-.03-.03V1.97h-.03V0h-61v2h.15v313.7h6v-2.29h27.75v2.29h6v-9.26l15.12-.1v9.35h6v-10.85l.12-.1-.12-.14ZM341.71,5.09l12.57,13.55-12.57,13.29V5.09ZM341.71,2h27.75v.61l-13.8,14.58-13.95-15.04v-.15ZM390.59,276.74l-15.12.1v-.68l8.8-10.5,6.33,7.55v3.53ZM341.71,257.76h27.75v.77l-13.72,11.34-14.03-11.6v-.51ZM341.71,227.97l14.03-11.6,13.72,11.34v.57h-27.75v-.31ZM341.71,64.84h27.75v.46l-13.94,11.52-13.81-11.41v-.57ZM341.71,37.2h27.71l-13.99,11.56-13.72-11.34v-.22ZM341.71,174.61h27.75v.18l-13.76,11.38-13.99-11.56h0ZM390.59,77.49l-5.55-6.62,5.55-6.62v13.24ZM390.59,80.6v3.05l-15.12.1v-1.45l8.27-9.87,6.85,8.18ZM375.46,85.75l15.12-.1v2.97l-6.94,8.28-8.18-9.77v-1.39ZM390.59,91.74v13.45l-5.64-6.73,5.64-6.73ZM390.59,61.13l-6.85,8.18-8.27-9.87v-1.29l15.12-.1v3.08ZM382.43,70.86l-6.97,8.32v-16.64l6.97,8.32ZM382.34,98.47l-6.88,8.21v-16.43l6.88,8.21ZM375.46,109.79l8.18-9.77,6.94,8.28v2.49l-15.12.1v-1.1ZM390.59,49.86l-5.46-6.52,5.46-6.52v13.04ZM390.59,52.97v3.08l-15.12.1v-1.27l8.36-9.98,6.76,8.07ZM375.46,51.77v-16.85l7.06,8.42-7.06,8.42ZM375.46,191.43l7.93-9.47,7.19,8.59v2.64l-15.12.1v-1.86ZM384.7,180.4l5.89-7.03v14.06l-5.89-7.03ZM390.59,170.26l-7.19,8.59-7.93-9.47v-1l15.12-.1v1.98ZM375.46,172.49l6.63,7.91-6.63,7.91v-15.82ZM375.46,195.29l15.12-.1v2.57l-7.28,8.69-7.84-9.36v-1.8ZM390.59,200.87v14.27l-5.98-7.13,5.98-7.13ZM390.59,166.28l-15.12.1v-1.51l8.02-9.57,7.11,8.48v2.51ZM375.46,161.75v-16.03l6.71,8.02-6.71,8.02ZM382,208.01l-6.54,7.81v-15.61l6.54,7.81ZM375.46,218.93l7.84-9.36,7.28,8.69v3.05l-15.12.1v-2.47ZM384.79,153.74l5.8-6.92v13.85l-5.8-6.92ZM390.59,143.7l-7.11,8.48-8.02-9.57v-1.21l15.12-.1v2.4ZM369.46,177.39v20.16l-12.2-10.08,12.2-10.08ZM369.42,200.11h-27.44l13.72-11.34,13.72,11.34ZM375.46,227.06l7.41,8.84-7.41,8.84v-17.68ZM375.46,223.95v-.55l15.12-.1v3.38l-6.41,7.66-8.71-10.4ZM390.59,139.3l-15.12.1v-1.18l8.62-10.29,6.5,7.76v3.62ZM375.46,135.1v-17.47l7.32,8.74-7.32,8.74ZM375.46,114.52v-1.62l15.12-.1v4.25l-6.5,7.76-8.62-10.29ZM390.59,33.71l-6.76,8.07-8.36-9.98v-1.25l15.12-.1v3.25ZM369.46,39.76v20.59l-12.46-10.3,12.46-10.3ZM369.46,67.9v20.45l-12.37-10.22,12.37-10.22ZM369.46,90.94v.07h-27.75v-.18l13.81-11.41,13.94,11.52ZM369.15,93.01l-13.58,11.23-13.58-11.23h27.16ZM369.46,95.35v20.38l-12.33-10.19,12.33-10.19ZM369.46,118.32v.4h-27.75v-.44l13.85-11.45,13.9,11.49ZM341.71,120.72h27.75v.11l-13.85,11.45-13.9-11.49v-.07ZM369.46,123.43v20.3l-12.28-10.15,12.28-10.15ZM369.18,146.1h-27.15l13.57-11.22,13.57,11.22ZM341.71,148.1h27.75v.15l-13.81,11.41-13.94-11.52v-.04ZM369.46,150.84v20.23l-12.24-10.12,12.24-10.12ZM368.19,172.61h-25.07l12.54-10.36,12.54,10.36ZM341.71,177.21l12.42,10.26-12.42,10.26v-20.53ZM341.71,202.11h27.75v.33l-13.72,11.34-14.03-11.6v-.07ZM369.46,205.03v20.09l-12.15-10.04,12.15-10.04ZM369.46,261.12v20.09l-12.15-10.04,12.15-10.04ZM375.46,247.86l8.71-10.4,6.41,7.66v3.94l-15.12.1v-1.3ZM385.48,235.91l5.11-6.1v12.2l-5.11-6.1ZM385.39,126.37l5.2-6.2v12.41l-5.2-6.2ZM390.59,21.9l-5.28-6.31,5.28-6.31v12.62ZM390.59,25.01v3.44l-15.12.1v-1.21l8.54-10.19,6.59,7.86ZM375.46,24.22V6.96l7.23,8.63-7.23,8.63ZM369.46,32.06l-12.43-13.4,12.43-13.14v26.54ZM369.46,35v.2h-27.75v-.35l13.94-14.73,13.81,14.88ZM353.86,50.05l-12.15,10.04v-20.09l12.15,10.05ZM355.43,51.35l13.9,11.49h-27.62v-.15l13.72-11.34ZM353.95,78.12l-12.24,10.12v-20.23l12.24,10.12ZM354,105.54l-12.28,10.15v-20.31l12.28,10.15ZM354.04,133.58l-12.33,10.19v-20.38l12.33,10.19ZM354.08,160.95l-12.37,10.23v-20.45l12.37,10.23ZM341.71,204.78l12.46,10.3-12.46,10.3v-20.6ZM341.71,230.28h27.46l-13.79,11.39-13.68-11.31v-.09ZM369.46,232.64v20.67l-12.5-10.33,12.5-10.33ZM369.29,255.76h-27.58v-.18l13.68-11.31,13.9,11.49ZM354.17,271.17l-12.46,10.3v-20.6l12.46,10.3ZM355.74,272.46l13.49,11.15h-26.99l13.49-11.15ZM375.46,273.04v-17.89l7.49,8.95-7.49,8.95ZM375.46,252.04v-.88l15.12-.1v3.92l-6.33,7.55-8.8-10.5ZM390.59,6.17l-6.59,7.86-8.54-10.19v-1.85h15.12v4.17ZM353.82,242.97l-12.11,10.01v-20.02l12.11,10.01ZM341.71,288.29l12.51,10.34-12.51,10.34v-20.67ZM341.71,285.69v-.08h27.75v.4l-13.68,11.3-14.07-11.63ZM369.46,288.61v20.01l-12.11-10.01,12.11-10.01ZM375.46,282.5l7.58,9.05-7.58,9.05v-18.1ZM375.46,279.39v-.55l15.12-.1v3.81l-6.24,7.45-8.89-10.61ZM390.59,285.67v11.78l-4.93-5.89,4.93-5.89ZM385.57,264.1l5.02-5.99v11.99l-5.02-5.99ZM341.89,311.41l13.9-11.49,13.68,11.3v.19h-27.58ZM375.46,304.44v-.72l8.89-10.61,6.24,7.45v3.78l-15.12.1Z"/>
  <polygon points="220.1 252.59 67.95 4.07 0 4.07 0 317.65 50.24 317.65 50.24 70.38 202.34 317.65 270.34 317.65 270.34 4.07 220.1 4.07 220.1 252.59"/>
  <path d="M710.19,160.99l-.59-7.87h-143.5v45.68h94.56c.11,4.08.17,7.27.17,9.53,0,12.68-.35,22.55-1.04,29.3-1.7,15.95-4.41,22.38-5.9,24.81-2.52,3.82-13.62,12.56-62.35,12.56-28.88,0-49.32-1.12-60.75-3.32l-.1-.02c-11.97-2.16-19.99-7.04-24.52-14.92-3.67-6.64-5.94-17.72-6.74-32.93-.43-11.58-.64-33.16-.64-64.15,0-29.13.36-49.56,1.07-60.77,1.64-27.62,9.16-43.62,22.35-47.54,10.45-3.09,27.9-4.65,51.85-4.65,33.2,0,43.61.33,46.56.62,25.9,2.29,32.79,8.67,34.63,12.35,2.38,4.65,3.9,10.61,4.52,17.72.18,2.13.44,7.56.62,21.32l.11,8.39h49.7v-8.5c0-14.95-.15-24.26-.46-28.42-2.29-32.01-17.98-53.09-46.61-62.64-13.03-4.39-38.87-6.53-78.98-6.53-31.63,0-52.15.89-62.73,2.73-27.57,4.81-47.03,17.99-57.82,39.17-10.27,20.16-15.27,53.23-15.27,101.09v12.87l.21,31.89c0,.11,0,.22,0,.33h0c-.3,27.17.74,46.76,3.18,59.85l.45,2.44c3.23,17.75,5.57,30.57,14.16,40.83,8.42,10.05,21.68,16.55,47.28,23.18,13.59,3.55,35.71,5.27,67.6,5.27,33.63,0,56.3-1.26,69.29-3.86,24.62-4.89,42.1-18.27,51.96-39.78,5.94-12.99,8.75-33.42,8.6-62.42v-20.11c.14-12.36-.16-23.64-.89-33.54Z"/>
</svg>