<?xml version="1.0" encoding="UTF-8"?>
<svg version="1.1" xmlns="http://www.w3.org/2000/svg" width="2560" height="866">
<path d="M0 0 C0.69577148 0.36528809 1.39154297 0.73057617 2.10839844 1.10693359 C28.68496941 15.08060864 52.01917892 33.69306911 74 54 C72.36934355 58.13625009 69.36776548 60.89956599 66.26513672 63.96191406 C65.67963043 64.5477124 65.09412415 65.13351074 64.49087524 65.73706055 C62.55851644 67.66802839 60.61917484 69.59181947 58.6796875 71.515625 C57.33689544 72.85468611 55.99454487 74.19419009 54.65261841 75.53411865 C51.12246283 79.05664429 47.58634194 82.57312203 44.0489502 86.08837891 C40.43917149 89.67768551 36.83505985 93.27267256 33.23046875 96.8671875 C26.15918442 103.91703318 19.08158587 110.96050337 12 118 C8.68071714 116.42165419 6.41782391 114.67155918 3.75 112.125 C-28.02849328 83.16817788 -67.89357714 65.44574963 -110 58 C-110.7002832 57.87544434 -111.40056641 57.75088867 -112.12207031 57.62255859 C-169.60234533 47.89845192 -231.12526533 62.1215349 -279.06640625 94.90625 C-287.34518115 100.81493621 -295.25986545 107.02477937 -302.7421875 113.9296875 C-304.76475254 115.78428866 -306.83483984 117.55035161 -308.9375 119.3125 C-351.4200269 156.61215862 -375.43188478 216.11528748 -379.6875 271.484375 C-383.61117366 333.14847349 -365.38598713 395.69879518 -324.6171875 442.75 C-323.1107973 444.42490165 -321.59423485 446.09072468 -320.06640625 447.74609375 C-318.23259442 449.7463006 -316.48962633 451.79343238 -314.75 453.875 C-277.80693293 496.09564808 -219.51526236 519.40711668 -164.625 523.625 C-102.87985935 527.12962615 -42.58519825 510.5115628 4 469 C4.55171875 468.5153125 5.1034375 468.030625 5.671875 467.53125 C40.71503113 436.66755286 53.6176934 395.70563519 62 351 C-7.63 351 -77.26 351 -149 351 C-149 321.63 -149 292.26 -149 262 C-50.33 262 48.34 262 150 262 C166.2019796 326.80791841 150.95371103 407.87828361 120 466 C119.61585938 466.72960937 119.23171875 467.45921875 118.8359375 468.2109375 C109.09556377 486.62338591 97.08477979 502.65091715 83 518 C82.03726254 519.06725943 81.07504724 520.13499004 80.11328125 521.203125 C74.0650887 527.88601647 67.8427396 534.11624288 61 540 C59.93031516 540.94324614 58.86134604 541.88730436 57.79296875 542.83203125 C0.89976074 592.80502851 -71.8396327 614.20415516 -146.625 614.25 C-148.11599716 614.25101212 -148.11599716 614.25101212 -149.63711548 614.25204468 C-165.93544728 614.23453736 -181.87436705 613.56657978 -198 611 C-199.62228516 610.74259033 -199.62228516 610.74259033 -201.27734375 610.47998047 C-259.47419995 600.89189418 -314.8670795 576.08286876 -360 538 C-361.49466797 536.78376953 -361.49466797 536.78376953 -363.01953125 535.54296875 C-370.85603104 529.09293573 -378.12153431 522.09191656 -385.3125 514.9375 C-386.23135986 514.02782471 -387.15021973 513.11814941 -388.09692383 512.1809082 C-394.15704547 506.0934271 -399.65927663 499.72238358 -405 493 C-406.04835145 491.72196134 -407.09883435 490.44566521 -408.15234375 489.171875 C-419.96492244 474.72624774 -429.63161072 459.11539526 -439 443 C-439.37366699 442.3615918 -439.74733398 441.72318359 -440.13232422 441.06542969 C-466.34825217 395.81189394 -478.25455278 341.92430383 -478.1875 290 C-478.18659363 288.70242264 -478.18659363 288.70242264 -478.18566895 287.37863159 C-478.16123009 274.48459974 -477.86387127 261.77866092 -476 249 C-475.87109375 248.07864258 -475.7421875 247.15728516 -475.609375 246.20800781 C-471.03808716 214.24073798 -462.14105651 183.07021903 -448 154 C-447.49170654 152.94014893 -447.49170654 152.94014893 -446.97314453 151.85888672 C-444.73142375 147.19492591 -442.40188646 142.58339485 -440 138 C-439.67628418 137.37770508 -439.35256836 136.75541016 -439.01904297 136.11425781 C-428.11357871 115.35575223 -414.1750602 95.70134471 -398.265625 78.4765625 C-396.38853839 76.42471266 -394.56625363 74.34339046 -392.75 72.23828125 C-388.91419482 67.84483898 -384.87549932 63.68331285 -380.75 59.5625 C-380.00274658 58.81605225 -379.25549316 58.06960449 -378.4855957 57.30053711 C-373.71139842 52.57887711 -368.87196307 48.16338414 -363.58203125 44.0234375 C-360.77395527 41.82285753 -358.08257665 39.51037361 -355.375 37.1875 C-308.59714501 -1.72398913 -249.89548084 -24.71283558 -190 -33 C-189.15598633 -33.11859375 -188.31197266 -33.2371875 -187.44238281 -33.359375 C-124.19994886 -41.77500186 -56.14634754 -30.16839803 0 0 Z " fill="#4185F4" transform="translate(481,39)"/>
<path d="M0 0 C0.96897217 0.47010498 0.96897217 0.47010498 1.95751953 0.94970703 C16.06248063 7.88755611 32.10925181 17.66387771 41 31 C41.99 31.33 42.98 31.66 44 32 C44 20.78 44 9.56 44 -2 C73.04 -2 102.08 -2 132 -2 C132.04419787 45.97543131 132.08108482 93.95084322 132.10213066 141.92628911 C132.10463169 147.6068653 132.10722037 153.28744145 132.10986328 158.96801758 C132.11065021 160.66416955 132.11065021 160.66416955 132.11145304 162.39458723 C132.12012503 180.63700432 132.13587708 198.87940863 132.15430559 217.12181818 C132.17309432 235.87905257 132.18413556 254.63628034 132.18817699 273.39352375 C132.19090356 284.94173811 132.19947383 296.48991634 132.21583293 308.03811956 C132.22651095 315.98713194 132.22957654 323.936126 132.22700275 331.885145 C132.22573803 336.45218379 132.22749467 341.01916007 132.23841095 345.58618736 C132.27737817 362.78671491 132.13716882 379.93018296 131.09518433 397.10365295 C131.01549852 398.41960369 130.93581272 399.73555442 130.8537122 401.09138244 C127.21516259 455.32596043 107.91133072 509.53644767 66.3359375 546.1953125 C41.92296028 567.05731121 12.12603339 579.7890227 -19.125 586.25 C-19.85082275 586.40122314 -20.57664551 586.55244629 -21.32446289 586.70825195 C-36.20824204 589.5736909 -51.13027863 590.38203049 -66.25 590.3125 C-67.52593018 590.30926727 -67.52593018 590.30926727 -68.82763672 590.30596924 C-95.92480682 590.19617417 -121.9605997 585.705892 -147 575 C-147.68223633 574.70899414 -148.36447266 574.41798828 -149.06738281 574.11816406 C-178.6144848 561.30402392 -205.27467238 540.43181872 -225 515 C-225.41862305 514.46842285 -225.83724609 513.9368457 -226.26855469 513.38916016 C-232.28641131 505.705129 -237.52142353 497.71909557 -242.375 489.25 C-242.86266846 488.39937988 -243.35033691 487.54875977 -243.8527832 486.67236328 C-253 470.37117095 -253 470.37117095 -253 466 C-250.2864841 464.86321973 -247.57293535 463.72651793 -244.859375 462.58984375 C-244.00156433 462.23046722 -243.14375366 461.8710907 -242.25994873 461.50082397 C-237.47560167 459.49675282 -232.69055515 457.49437576 -227.90429688 455.49487305 C-219.20250253 451.85868547 -210.50192082 448.22061866 -201.82305908 444.529953 C-198.50082585 443.11790792 -195.17571662 441.71271875 -191.85021973 440.30838013 C-190.28553221 439.64536076 -188.72228832 438.97892398 -187.16052246 438.30905151 C-184.99597128 437.38100092 -182.82682371 436.46463754 -180.65625 435.55078125 C-179.70295807 435.13655411 -179.70295807 435.13655411 -178.73040771 434.71395874 C-174.34176617 432.88607794 -174.34176617 432.88607794 -171 434 C-169.67974681 436.40154653 -168.51123108 438.76355192 -167.375 441.25 C-161.62901208 453.23498669 -154.2063522 463.39127226 -145 473 C-144.30390625 473.75925781 -143.6078125 474.51851562 -142.890625 475.30078125 C-125.17707675 494.01637328 -98.44525753 505.51310487 -72.7734375 506.30078125 C-70.64071015 506.32023563 -68.50778641 506.32374887 -66.375 506.3125 C-65.24126953 506.30686035 -64.10753906 506.3012207 -62.93945312 506.29541016 C-36.4220146 505.91605303 -10.85101477 498.05221732 9 480 C9.69351562 479.39929688 10.38703125 478.79859375 11.1015625 478.1796875 C34.4401736 456.70072668 41.5989271 422.26896323 42.88671875 392.00585938 C43.33892793 380.00672261 43.66973961 368.00300071 44 356 C39.85752148 358.3753558 36.80879211 361.10176285 33.5625 364.5625 C8.35233912 390.39518233 -29.17772292 402.69705934 -64.63427734 403.28564453 C-98.6503164 403.51819669 -130.00353277 396.00680826 -160 380 C-160.60054199 379.68305176 -161.20108398 379.36610352 -161.81982422 379.03955078 C-209.42351256 353.70782256 -245.18497983 307.64569238 -260.96459961 256.43066406 C-276.96020955 201.39176334 -271.04951267 142.54279518 -244 92 C-237.56486163 80.71133432 -230.28032078 70.01227257 -222 60 C-221.51499023 59.41347656 -221.02998047 58.82695312 -220.53027344 58.22265625 C-211.48424758 47.35593821 -202.11311255 37.79665901 -191 29 C-190.02289062 28.2059375 -189.04578125 27.411875 -188.0390625 26.59375 C-136.14990479 -14.7084511 -60.9170024 -29.72946174 0 0 Z M-146.625 107.9921875 C-169.91227356 136.54049308 -179.72321595 172.67070426 -176.25 209.125 C-174.66460398 223.9006578 -171.05721942 237.44336605 -165 251 C-164.53722656 252.03769531 -164.07445312 253.07539063 -163.59765625 254.14453125 C-157.46270223 267.11120692 -148.99234494 277.85392668 -139 288 C-138.17113281 288.85335937 -137.34226562 289.70671875 -136.48828125 290.5859375 C-114.76082607 311.68120026 -85.38382603 320.56828104 -55.6484375 320.2109375 C-33.01895307 319.59769286 -11.13929169 310.66396437 6 296 C6.79792969 295.33484375 7.59585938 294.6696875 8.41796875 293.984375 C28.56200902 276.61989998 41.30562708 252.74606983 47 227 C47.16371094 226.26620117 47.32742188 225.53240234 47.49609375 224.77636719 C55.24297899 188.36280536 48.31364574 149.70241631 29 118 C20.44375368 104.86715682 8.56149853 91.96288826 -5 84 C-5.60150879 83.64599121 -6.20301758 83.29198242 -6.82275391 82.92724609 C-53.88338964 55.62864646 -111.0176641 67.40406355 -146.625 107.9921875 Z " fill="#4285F4" transform="translate(1843,250)"/>
<path d="M0 0 C1.2375 1.07314453 1.2375 1.07314453 2.5 2.16796875 C43.63986613 38.48675682 68.23980479 89.45388542 71.85498047 144.25830078 C74.93647267 202.51614158 57.71038213 258.29964689 18.61962891 301.98779297 C-17.31249518 341.34761397 -68.81861772 366.17033725 -122.1902771 369.12109375 C-127.33508595 369.31986832 -132.47703251 369.33774429 -137.625 369.3125 C-138.40481232 369.31067719 -139.18462463 369.30885437 -139.98806763 369.30697632 C-189.82510651 369.11202008 -239.43510953 352.45064056 -277 319 C-277.95648437 318.16339844 -278.91296875 317.32679688 -279.8984375 316.46484375 C-321.41766568 279.66020407 -344.04837853 227.91008146 -348 173 C-351.03128525 115.38845432 -332.74887549 60.84310198 -294.52294922 17.68847656 C-284.67158891 6.76638488 -273.98670651 -2.48694742 -262 -11 C-261.33693848 -11.4753418 -260.67387695 -11.95068359 -259.99072266 -12.44042969 C-234.14448878 -30.73830841 -204.00678271 -41.49984029 -173 -47 C-171.90969482 -47.19698486 -171.90969482 -47.19698486 -170.79736328 -47.39794922 C-111.49348956 -57.50157215 -45.17712717 -39.60238551 0 0 Z M-223.4375 71.625 C-248.81593856 101.82064217 -257.95220569 137.76088158 -254.77294922 176.78710938 C-254.1968538 181.94453507 -253.22606341 186.96059936 -252 192 C-251.83902832 192.68884277 -251.67805664 193.37768555 -251.51220703 194.08740234 C-245.9758694 217.08899723 -234.29070598 236.08369087 -218 253 C-217.41863281 253.64453125 -216.83726562 254.2890625 -216.23828125 254.953125 C-198.24807516 274.34810789 -169.62293957 285.18069866 -143.62890625 286.28515625 C-111.01374668 287.08189719 -81.71351498 275.81903221 -57.98486328 253.38110352 C-35.2213888 231.17923884 -21.54173675 199.5708623 -20.796875 167.76171875 C-20.40326432 132.73036785 -28.01632735 101.31001103 -51 74 C-51.42192627 73.48236084 -51.84385254 72.96472168 -52.27856445 72.43139648 C-70.15493456 50.56823433 -98.16609424 37.35726291 -125.92114258 34.1809082 C-162.60578169 30.98850449 -198.45067776 44.32458311 -223.4375 71.625 Z " fill="#EA4234" transform="translate(1018,284)"/>
<path d="M0 0 C0.75603516 0.66781494 0.75603516 0.66781494 1.52734375 1.34912109 C20.83021847 18.45901335 36.30146831 37.97029431 48 61 C48.35787598 61.69270996 48.71575195 62.38541992 49.08447266 63.09912109 C73.93385579 111.5960517 77.63395533 171.44322361 61.6875 223.3125 C60.82218234 225.89232905 59.93655444 228.44687651 59 231 C58.72317383 231.76054688 58.44634766 232.52109375 58.16113281 233.3046875 C46.27407206 265.48328222 26.86392778 296.16728894 0 318 C-1.02901563 318.87586782 -2.05762363 319.75221464 -3.0859375 320.62890625 C-40.89686016 352.37486605 -89.51168834 368.55333886 -138.625 368.3125 C-139.40481232 368.31067719 -140.18462463 368.30885437 -140.98806763 368.30697632 C-184.56777513 368.13649797 -227.37735403 355.54937973 -263 330 C-263.58668457 329.58008789 -264.17336914 329.16017578 -264.77783203 328.72753906 C-273.05362376 322.72963852 -280.61766336 316.04677588 -288 309 C-288.85335938 308.19949219 -289.70671875 307.39898438 -290.5859375 306.57421875 C-297.47106813 299.93886415 -303.28492978 292.63783272 -309 285 C-309.62648438 284.16855469 -310.25296875 283.33710937 -310.8984375 282.48046875 C-330.01117683 256.14437019 -341.34103143 225.90205704 -347 194 C-347.19698486 192.90969482 -347.19698486 192.90969482 -347.39794922 191.79736328 C-351.38316292 168.40589154 -350.36453198 142.22782631 -346 119 C-345.82839355 118.0836377 -345.65678711 117.16727539 -345.47998047 116.22314453 C-337.9595497 77.50535933 -320.1341505 42.58700265 -293 14 C-292.51225098 13.47970215 -292.02450195 12.9594043 -291.52197266 12.42333984 C-260.58336467 -20.38918811 -218.22380279 -40.67969331 -174 -48 C-172.96915283 -48.17789063 -172.96915283 -48.17789063 -171.91748047 -48.359375 C-112.08228213 -58.25581932 -45.32606309 -40.49967674 0 0 Z M-225.49316406 71.64501953 C-239.94606662 88.27995076 -249.4509874 108.48073386 -254 130 C-254.17877686 130.84425537 -254.35755371 131.68851074 -254.54174805 132.55834961 C-256.16437318 141.10513899 -256.35738612 149.52521702 -256.3125 158.1875 C-256.31067719 158.91677704 -256.30885437 159.64605408 -256.30697632 160.39743042 C-256.26147591 171.20503616 -255.82052421 181.50764993 -253 192 C-252.82307617 192.66161133 -252.64615234 193.32322266 -252.46386719 194.00488281 C-247.22548752 213.13989662 -238.9882195 231.35933658 -225.10546875 245.7890625 C-223 248 -223 248 -220.63671875 250.94140625 C-217.95826888 254.18360556 -214.94386078 256.74602105 -211.625 259.3125 C-211.017771 259.78324951 -210.41054199 260.25399902 -209.78491211 260.73901367 C-185.37122721 279.29241351 -155.99567099 288.09497351 -125.28369141 284.69970703 C-93.4922057 280.02711458 -65.62616066 263.54517137 -46.3125 237.8125 C-25.97910222 209.75841882 -18.12061773 173.43078274 -22.87084961 139.2980957 C-23.4794269 135.50908487 -24.20156275 131.75326323 -25 128 C-25.26683594 126.72125 -25.53367187 125.4425 -25.80859375 124.125 C-31.17010432 101.63048454 -42.87039892 82.31473279 -59 66 C-59.86818359 65.02353516 -59.86818359 65.02353516 -60.75390625 64.02734375 C-77.59427841 45.42818599 -106.5692627 34.22691285 -131.21386719 32.87890625 C-167.28668939 31.41312721 -201.06689471 44.73458741 -225.49316406 71.64501953 Z " fill="#FBBC04" transform="translate(1471,285)"/>
<path d="M0 0 C0.84433594 0.63292969 1.68867188 1.26585937 2.55859375 1.91796875 C41.71113539 32.30034107 67.12571209 76.22361982 82 123 C76.78376531 125.66783414 71.55937054 128.09916438 66.12890625 130.29296875 C65.38677383 130.59591858 64.64464142 130.89886841 63.88002014 131.21099854 C62.27946171 131.8640701 60.67834461 132.51577386 59.07672119 133.16622925 C54.70336731 134.94267534 50.33445405 136.72999532 45.96484375 138.515625 C45.05814941 138.8858226 44.15145508 139.2560202 43.21728516 139.63743591 C33.67238989 143.53676273 24.14735017 147.48350258 14.625 151.4375 C12.91154524 152.14869497 11.19808493 152.85987654 9.48461914 153.57104492 C6.04203457 155.00003576 2.59959465 156.42937446 -0.84277344 157.85888672 C-8.54041476 161.05516122 -16.24003915 164.24665296 -23.93951416 167.43850708 C-28.20975728 169.20880894 -32.47987215 170.97942012 -36.75 172.75 C-38.45833272 173.45833482 -40.16666605 174.16666815 -41.875 174.875 C-42.720625 175.225625 -43.56625 175.57625 -44.4375 175.9375 C-52.12499992 179.12499997 -52.12499992 179.12499997 -54.68757629 180.18753052 C-56.39565637 180.89575959 -58.10373539 181.60399119 -59.81181335 182.31222534 C-64.08651292 184.08467479 -68.36123087 185.85707989 -72.63598633 187.62939453 C-80.27726235 190.79751913 -87.91842285 193.96592039 -95.55886841 197.13604736 C-98.92496327 198.5326686 -102.29114134 199.9290892 -105.65734863 201.32543945 C-107.34006855 202.02346743 -109.02276722 202.72154661 -110.70544434 203.41967773 C-120.82124955 207.61629122 -130.94113306 211.80284095 -141.06640625 215.9765625 C-143.11759508 216.82242675 -145.16878323 217.66829263 -147.2199707 218.51416016 C-151.10715029 220.11705098 -154.99510633 221.71803734 -158.88354492 223.31787109 C-171.30381879 228.43483579 -183.66754366 233.67491299 -196 239 C-181.86250019 266.34113536 -160.46387835 286.59874012 -131 296 C-100.91361317 304.54116674 -66.82985098 301.24106524 -39.34667969 286.24560547 C-32.74981149 282.45534651 -26.84698505 277.84464475 -21 273 C-20.22785156 272.36964844 -19.45570313 271.73929688 -18.66015625 271.08984375 C-9.90898703 263.71601787 -0.16371948 253.32743896 5 243 C8.33378154 244.24226803 11.19382319 245.63673012 14.1340332 247.63525391 C14.91783356 248.1645752 15.70163391 248.69389648 16.50918579 249.23925781 C17.34791229 249.81256836 18.18663879 250.38587891 19.05078125 250.9765625 C19.93446381 251.57484863 20.81814636 252.17313477 21.72860718 252.78955078 C24.59301656 254.73015843 27.45291584 256.67729063 30.3125 258.625 C34.20982783 261.27246978 38.10874599 263.91759176 42.0078125 266.5625 C42.96235825 267.21070709 43.91690399 267.85891418 44.90037537 268.52676392 C50.29835553 272.18750033 55.71672708 275.81199349 61.1796875 279.375 C61.75827011 279.75369232 62.33685272 280.13238464 62.93296814 280.52255249 C65.49694954 282.19998153 68.06643218 283.86732908 70.64770508 285.51806641 C71.51032959 286.08187012 72.3729541 286.64567383 73.26171875 287.2265625 C73.99350342 287.69658691 74.72528809 288.16661133 75.47924805 288.65087891 C75.98109619 289.09608887 76.48294434 289.54129883 77 290 C77 301.19341851 57.95575158 317.2611877 50.1875 325.125 C43.23529431 332.05009036 35.93525602 338.238183 28 344 C27.45778809 344.39767578 26.91557617 344.79535156 26.35693359 345.20507812 C1.93817621 363.00416036 -26.26568434 375.46326536 -56 381 C-57.19109375 381.22429687 -57.19109375 381.22429687 -58.40625 381.453125 C-114.08752641 391.4207609 -172.41505474 378.84404959 -218.86474609 346.70996094 C-226.54906593 341.19621896 -233.6445771 334.99027633 -240.47314453 328.45947266 C-241.50315775 327.47491573 -242.53812459 326.4955186 -243.57763672 325.52099609 C-279.81207028 291.46789967 -302.47373815 239.91858554 -304.20507812 190.24951172 C-304.32699421 185.1452791 -304.33450603 180.04289825 -304.3125 174.9375 C-304.31034485 174.03547852 -304.3081897 173.13345703 -304.30596924 172.20410156 C-304.2526865 158.28283076 -303.7707701 144.68456717 -301 131 C-300.80132324 130.00726074 -300.60264648 129.01452148 -300.39794922 127.99169922 C-296.03874297 106.91403906 -289.31400005 86.91069369 -279 68 C-278.68063477 67.4028418 -278.36126953 66.80568359 -278.03222656 66.19042969 C-253.88880919 21.21259122 -212.9014073 -11.27706911 -164.43945312 -26.48925781 C-109.01572076 -42.93064681 -46.67407106 -35.11790491 0 0 Z M-181.6953125 82.58984375 C-196.28497716 97.79693936 -204.79864823 116.81813161 -210 137 C-210.24878906 137.94359375 -210.49757813 138.8871875 -210.75390625 139.859375 C-212.72663928 148.74357128 -212.16871964 157.95475288 -212 167 C-207.3727707 166.30828912 -203.26469088 164.58801986 -198.984375 162.78125 C-197.79856087 162.28729988 -197.79856087 162.28729988 -196.58879089 161.78337097 C-193.97407812 160.69312982 -191.36208508 159.59652008 -188.75 158.5 C-186.8993713 157.72713805 -185.04853765 156.95476672 -183.19750977 156.18286133 C-179.35565744 154.58032876 -175.51469526 152.97568915 -171.67431641 151.36962891 C-163.93251742 148.13401247 -156.17912591 144.92648257 -148.42614746 141.71777344 C-131.59621915 134.75036308 -114.78125359 127.74711553 -97.96942139 120.73617554 C-87.03766711 116.17739154 -76.10362898 111.62434336 -65.16015625 107.09375 C-64.21554535 106.7026001 -63.27093445 106.3114502 -62.29769897 105.90844727 C-57.8417393 104.0635797 -53.38519852 102.22013576 -48.92773438 100.37890625 C-41.57752935 97.33943859 -34.24279873 94.28989235 -27 91 C-35.35614671 72.19519781 -50.28757441 60.64784523 -69 53 C-110.2871621 38.40002767 -151.27203819 53.35704539 -181.6953125 82.58984375 Z " fill="#EA4234" transform="translate(2460,269)"/>
<path d="M0 0 C29.7 0 59.4 0 90 0 C90 201.96 90 403.92 90 612 C60.3 612 30.6 612 0 612 C0 410.04 0 208.08 0 0 Z " fill="#34A752" transform="translate(2028,28)"/>
</svg>
