<svg width="109" height="34" viewBox="0 0 109 34" fill="none" xmlns="http://www.w3.org/2000/svg">
<path d="M16.3753 23.3058C16.3753 23.9762 17.0115 25.1404 18.5518 25.1404C23.4406 25.1404 32.6489 17.2023 32.6489 9.40526C32.6489 4.0426 27.7267 2.38442 23.1727 2.38442C13.73 2.38442 1.1732 12.3688 0.771379 23.2C0.470015 30.1503 5.22486 33.3608 11.52 33.3608C24.1773 33.3608 42.2256 18.1549 42.2256 17.414C42.2256 16.92 25.3492 31.3145 11.9888 31.3145C7.03303 31.3145 3.04834 28.8096 3.21577 23.5175C3.51713 13.7448 14.5671 3.01946 23.1727 3.01946C27.0235 3.01946 30.372 4.85406 30.372 8.94661C30.372 14.9443 23.9094 24.4701 19.0541 24.4701C18.6188 24.4701 18.5183 24.2231 18.5183 23.8703C18.5183 21.2595 23.3736 16.5672 23.3736 15.7558C23.3736 15.156 22.3691 14.4504 21.6324 14.4504C20.9292 14.4504 18.8532 16.8495 18.3844 17.3434C16.6432 19.2133 12.8259 21.9299 10.7499 22.8825C12.2567 18.6135 18.1835 12.4394 22.0008 12.4394C22.9718 12.4394 23.5745 13.0392 23.5745 14.027C23.5745 14.5209 23.3736 14.909 23.2397 15.1913C23.2062 15.2266 23.2732 15.2971 23.3067 15.2618C23.6415 14.8385 23.9094 14.2387 23.9094 13.6742C23.9094 12.0513 22.2686 11.5221 21.0632 11.5221C16.7102 11.5221 8.13804 18.1196 8.13804 22.4591C8.13804 23.2705 8.70728 24.5406 9.47743 24.5406C11.9218 24.5406 17.6477 18.7899 18.6523 17.7668C17.3464 19.4602 16.3753 21.6476 16.3753 23.3058ZM44.0003 13.5331C39.9151 20.2717 38.3748 23.6939 38.3748 24.7523C38.3748 25.1404 38.4418 25.211 38.4753 25.2815C38.6762 25.8107 39.4129 26.5516 39.6807 26.6928C39.9821 26.8692 40.317 27.0103 40.7523 26.8339C42.1921 26.2694 45.641 22.8119 48.0519 20.1658C46.746 22.6355 46.1768 24.1173 46.1768 24.7523C46.1768 25.1404 46.2772 25.211 46.3107 25.2815C46.5116 25.8107 47.2148 26.5516 47.5162 26.6928C47.8176 26.8692 48.1524 27.0103 48.5877 26.8339C50.5968 26.0577 56.3897 19.6366 58.0639 17.6609C58.1644 17.5551 58.0304 17.2728 57.8295 17.4492C55.8539 19.3544 50.2954 25.1051 48.8556 24.9287C49.6257 22.6708 52.1706 18.1901 55.0838 13.5331C56.5906 11.2399 57.8295 9.3347 59.1019 7.57067C61.6468 7.42954 64.0242 7.53539 66.4351 7.64123C69.2478 7.78235 71.4243 8.20571 72.6298 8.45268C69.5157 7.11202 63.9572 6.54753 59.9056 6.47697C61.3789 4.53653 63.2875 1.74936 64.3925 2.27857C65.0287 2.66666 63.6894 0.620383 61.8142 0.726225C61.5128 0.726225 61.0441 1.00847 60.5753 1.43184C59.7381 2.13745 58.7671 3.26643 57.796 4.64238L56.4901 6.44169C54.9498 6.40641 53.51 6.54753 51.9362 6.65337C53.4095 4.71294 55.4521 1.74936 56.5906 2.27857C57.1933 2.66666 55.8539 0.620383 53.9788 0.726225C53.6774 0.726225 53.2421 1.00847 52.7398 1.43184C51.9027 2.13745 50.9651 3.26643 49.9606 4.64238L48.2529 7.00618C44.4691 7.50011 41.0536 8.31156 41.1206 9.72278C41.221 11.134 42.8283 11.8396 42.7948 11.2751C42.7279 10.887 43.8998 10.005 46.746 9.22885C45.8419 10.5695 44.9044 12.016 44.0003 13.5331ZM51.8022 13.5331C50.6303 15.4382 49.7262 17.0964 48.956 18.4724C46.5116 20.8715 42.2591 25.1051 41.0201 24.9287C41.8238 22.6708 44.3351 18.1901 47.2483 13.5331C48.4872 11.5927 49.5588 9.93446 50.6638 8.38212C52.0701 8.17043 53.6439 7.99403 55.4856 7.81763H55.5525C54.3471 9.54638 53.0412 11.4868 51.8022 13.5331ZM57.9969 21.8946C61.7472 21.7888 68.1763 16.7083 68.1763 14.5209C68.1763 13.5331 66.636 12.7216 66.1337 12.7216C64.6939 12.7216 61.7137 13.8153 58.9345 16.2497C56.825 18.1196 55.1172 20.3422 54.3136 22.3532C54.0457 23.1294 53.8448 23.835 53.8448 24.6818C53.8448 25.6343 55.1842 26.9044 56.2222 26.9044C60.6757 26.9044 67.3392 20.1658 69.8505 17.6962C69.951 17.5904 69.7166 17.414 69.6162 17.4845C66.2342 20.4481 60.1065 25.3521 57.6621 25.3521C56.9254 25.3521 56.624 25.1051 56.6575 24.6818C56.758 23.7645 57.3942 22.6355 57.9969 21.8946ZM67.1048 13.7801C66.9039 15.1207 61.3454 20.8362 58.4322 21.189C59.5372 19.3191 63.388 15.0502 67.1048 13.7801ZM82.7087 15.1913C83.1441 14.8032 82.0725 12.898 81.2689 12.898C80.1304 12.898 74.2371 17.6609 70.4868 21.5418C69.7836 22.2474 69.1474 22.953 68.7791 23.5175C69.2813 22.5296 71.0225 19.9189 72.5963 17.7315C73.6009 16.3555 74.8398 14.8738 75.2751 14.909C75.543 14.9443 75.6769 15.1207 75.6769 14.9796C75.6769 14.0976 74.4045 12.7216 73.5674 12.7216C73.4669 12.7216 73.266 12.7569 73.1321 12.898C72.2615 13.6037 70.7881 15.4735 69.5827 17.2728C68.4777 18.8957 67.2053 20.9773 66.4016 22.6355C65.5645 24.2584 65.3971 25.211 65.4641 25.4579C65.7319 26.4811 66.5356 27.6101 67.5401 27.3631C67.0378 27.1161 67.2722 26.1635 68.1763 25.0346C68.5447 24.5406 68.9465 24.0114 69.3818 23.5528C71.8597 20.7303 76.7819 16.4614 79.5277 15.156C77.7865 16.8142 73.9022 22.7061 73.9022 24.717C73.9022 25.1051 74.1366 25.6343 74.505 26.093C74.8398 26.5164 75.2081 26.8339 75.543 26.8339C77.5521 26.8339 83.0101 21.0126 85.9233 17.6609C86.0237 17.5551 85.8563 17.2728 85.6554 17.4492C83.5124 19.5661 78.7241 24.3995 76.6145 24.9993C76.6815 23.3411 81.8716 15.8969 82.7087 15.1913ZM94.0601 12.7216C92.051 12.7216 89.7741 13.8506 87.1957 15.6499C83.6463 18.0843 80.6327 22.6002 80.6327 24.5054C80.6327 25.3168 81.7042 26.9044 82.307 26.9044C84.0482 26.9044 90.946 20.1306 92.118 19.1427C90.4772 22.318 89.7406 24.1526 89.7406 24.8582C89.7406 25.6343 90.4772 26.3752 91.013 26.6928C91.3479 26.8692 91.7162 26.975 92.118 26.8339C94.0266 26.1988 100.02 19.5661 101.628 17.6609C101.728 17.5551 101.561 17.2728 101.36 17.4492C99.8865 18.8957 93.9931 24.9287 92.2185 25.0699C93.0556 22.8472 95.7344 18.1901 98.681 13.5331C100.322 10.9576 101.695 8.87605 103.168 6.93562C104.574 5.03046 106.818 1.71408 107.956 2.27857C108.559 2.66666 107.22 0.620383 105.345 0.726225C105.043 0.726225 104.608 1.00847 104.106 1.43184C103.302 2.13745 102.364 3.26643 101.326 4.64238C99.6856 7.00618 97.6095 9.93447 95.5335 13.3214C95.2321 12.9686 94.6963 12.7216 94.0601 12.7216ZM93.0556 17.5198C89.1379 21.1184 83.7803 25.0346 83.3785 24.7876C83.1106 24.6112 85.3541 20.9067 88.3677 17.9079C90.2094 16.0027 92.4194 14.2034 93.8257 13.8153C94.2945 13.6742 94.7968 13.6742 95.2321 13.8153L93.0556 17.5198Z" fill="#7F8180"/>
</svg>
