<svg width="108" height="33" viewBox="0 0 108 33" fill="none" xmlns="http://www.w3.org/2000/svg">
<path d="M15.6175 22.5835C15.6175 23.2539 16.2537 24.4181 17.794 24.4181C22.6828 24.4181 31.8911 16.4801 31.8911 8.68301C31.8911 3.32035 26.9689 1.66217 22.4149 1.66217C12.9722 1.66217 0.415387 11.6466 0.0135661 22.4778C-0.287798 29.4281 4.46705 32.6386 10.7622 32.6386C23.4195 32.6386 41.4678 17.4326 41.4678 16.6917C41.4678 16.1977 24.5914 30.5923 11.231 30.5923C6.27522 30.5923 2.29053 28.0873 2.45796 22.7952C2.75932 13.0225 13.8093 2.29721 22.4149 2.29721C26.2657 2.29721 29.6142 4.13181 29.6142 8.22436C29.6142 14.2221 23.1516 23.7479 18.2963 23.7479C17.861 23.7479 17.7605 23.5009 17.7605 23.1481C17.7605 20.5373 22.6158 15.845 22.6158 15.0336C22.6158 14.4338 21.6113 13.7282 20.8746 13.7282C20.1714 13.7282 18.0954 16.1272 17.6266 16.6211C15.8854 18.491 12.0681 21.2076 9.99209 22.1602C11.4989 17.8912 17.4257 11.7171 21.243 11.7171C22.214 11.7171 22.8167 12.317 22.8167 13.3048C22.8167 13.7987 22.6158 14.1868 22.4819 14.4691C22.4484 14.5044 22.5154 14.5748 22.5489 14.5395C22.8837 14.1162 23.1516 13.5165 23.1516 12.952C23.1516 11.3291 21.5108 10.7999 20.3054 10.7999C15.9524 10.7999 7.38023 17.3974 7.38023 21.7369C7.38023 22.5483 7.94947 23.8183 8.71962 23.8183C11.164 23.8183 16.8899 18.0676 17.8945 17.0445C16.5886 18.7379 15.6175 20.9253 15.6175 22.5835ZM43.2425 12.8109C39.1573 19.5494 37.617 22.9717 37.617 24.0301C37.617 24.4182 37.684 24.4887 37.7175 24.5592C37.9184 25.0884 38.6551 25.8294 38.9229 25.9706C39.2243 26.147 39.5592 26.2881 39.9945 26.1117C41.4343 25.5472 44.8832 22.0897 47.2941 19.4436C45.9882 21.9133 45.419 23.3951 45.419 24.0301C45.419 24.4182 45.5194 24.4887 45.5529 24.5592C45.7538 25.0884 46.457 25.8294 46.7584 25.9706C47.0598 26.147 47.3946 26.2881 47.8299 26.1117C49.839 25.3355 55.6319 18.9144 57.3061 16.9387C57.4066 16.8329 57.2726 16.5505 57.0717 16.7269C55.0961 18.6321 49.5376 24.3828 48.0978 24.2064C48.8679 21.9485 51.4128 17.4679 54.326 12.8109C55.8328 10.5177 57.0717 8.61245 58.3441 6.84842C60.889 6.70729 63.2664 6.81314 65.6773 6.91898C68.49 7.0601 70.6665 7.48346 71.872 7.73043C68.7579 6.38977 63.1994 5.82528 59.1478 5.75472C60.6211 3.81428 62.5297 1.02711 63.6347 1.55632C64.2709 1.94441 62.9316 -0.101867 61.0564 0.00397504C60.755 0.00397504 60.2863 0.28622 59.8175 0.70959C58.9803 1.4152 58.0093 2.54418 57.0382 3.92013L55.7323 5.71944C54.192 5.68416 52.7522 5.82528 51.1784 5.93112C52.6517 3.99069 54.6943 1.02711 55.8328 1.55632C56.4355 1.94441 55.0961 -0.101867 53.221 0.00397504C52.9196 0.00397504 52.4843 0.28622 51.982 0.70959C51.1449 1.4152 50.2073 2.54418 49.2028 3.92013L47.4951 6.28393C43.7113 6.77786 40.2958 7.58931 40.3628 9.00053C40.4632 10.4118 42.0705 11.1173 42.037 10.5528C41.9701 10.1647 43.142 9.28275 45.9882 8.5066C45.0841 9.84725 44.1466 11.2938 43.2425 12.8109ZM51.0444 12.8109C49.8725 14.716 48.9684 16.3742 48.1982 17.7502C45.7538 20.1493 41.5013 24.3828 40.2623 24.2064C41.066 21.9485 43.5773 17.4679 46.4905 12.8109C47.7294 10.8705 48.801 9.21221 49.906 7.65987C51.3123 7.44818 52.8861 7.27178 54.7278 7.09538H54.7947C53.5893 8.82413 52.2834 10.7646 51.0444 12.8109ZM57.2391 21.1723C60.9894 21.0665 67.4185 15.986 67.4185 13.7986C67.4185 12.8108 65.8782 11.9993 65.3759 11.9993C63.9361 11.9993 60.9559 13.0931 58.1767 15.5275C56.0672 17.3974 54.3594 19.62 53.5558 21.631C53.2879 22.4072 53.087 23.1128 53.087 23.9596C53.087 24.9121 54.4264 26.1821 55.4644 26.1821C59.9179 26.1821 66.5814 19.4435 69.0927 16.9739C69.1932 16.8681 68.9588 16.6918 68.8584 16.7623C65.4764 19.7259 59.3487 24.6299 56.9043 24.6299C56.1676 24.6299 55.8662 24.3829 55.8997 23.9596C56.0002 23.0423 56.6364 21.9132 57.2391 21.1723ZM66.347 13.0578C66.1461 14.3984 60.5876 20.1139 57.6744 20.4667C58.7794 18.5968 62.6302 14.3279 66.347 13.0578ZM81.9509 14.4691C82.3863 14.081 81.3147 12.1757 80.5111 12.1757C79.3726 12.1757 73.4793 16.9386 69.729 20.8195C69.0258 21.5251 68.3896 22.2307 68.0213 22.7952C68.5235 21.8073 70.2647 19.1967 71.8385 17.0093C72.8431 15.6333 74.082 14.1516 74.5173 14.1868C74.7852 14.2221 74.9191 14.3984 74.9191 14.2573C74.9191 13.3753 73.6467 11.9993 72.8096 11.9993C72.7091 11.9993 72.5082 12.0346 72.3743 12.1757C71.5037 12.8814 70.0303 14.7513 68.8249 16.5506C67.7199 18.1735 66.4475 20.255 65.6438 21.9132C64.8067 23.5361 64.6393 24.4887 64.7063 24.7356C64.9741 25.7588 65.7778 26.8879 66.7823 26.6409C66.28 26.3939 66.5144 25.4412 67.4185 24.3123C67.7869 23.8183 68.1887 23.2891 68.624 22.8305C71.1019 20.008 76.0241 15.7392 78.7699 14.4338C77.0287 16.092 73.1444 21.9838 73.1444 23.9947C73.1444 24.3828 73.3788 24.9121 73.7472 25.3708C74.082 25.7942 74.4503 26.1117 74.7852 26.1117C76.7943 26.1117 82.2523 20.2904 85.1655 16.9387C85.2659 16.8329 85.0985 16.5505 84.8976 16.7269C82.7546 18.8438 77.9663 23.6773 75.8567 24.2771C75.9237 22.6188 81.1138 15.1747 81.9509 14.4691ZM93.3023 11.9993C91.2932 11.9993 89.0163 13.1284 86.4379 14.9277C82.8885 17.3621 79.8749 21.8779 79.8749 23.7831C79.8749 24.5945 80.9464 26.1821 81.5492 26.1821C83.2904 26.1821 90.1882 19.4084 91.3602 18.4205C89.7194 21.5958 88.9828 23.4304 88.9828 24.136C88.9828 24.9121 89.7194 25.653 90.2552 25.9706C90.5901 26.147 90.9584 26.2528 91.3602 26.1117C93.2688 25.4766 99.2622 18.8439 100.87 16.9387C100.97 16.8329 100.803 16.5505 100.602 16.7269C99.1287 18.1734 93.2353 24.2065 91.4607 24.3477C92.2978 22.125 94.9766 17.4679 97.9232 12.8109C99.5642 10.2354 100.937 8.1538 102.41 6.21337C103.816 4.30821 106.06 0.99183 107.198 1.55632C107.801 1.94441 106.462 -0.101867 104.587 0.00397504C104.285 0.00397504 103.85 0.28622 103.348 0.70959C102.544 1.4152 101.606 2.54418 100.568 3.92013C98.9278 6.28393 96.8517 9.21222 94.7757 12.5991C94.4743 12.2463 93.9385 11.9993 93.3023 11.9993ZM92.2978 16.7976C88.3801 20.3962 83.0225 24.3123 82.6207 24.0653C82.3528 23.8889 84.5963 20.1844 87.6099 17.1856C89.4516 15.2804 91.6616 13.4812 93.0679 13.0931C93.5367 12.9519 94.039 12.9519 94.4743 13.0931L92.2978 16.7976Z" fill="black"/>
</svg>
