<svg width="256" height="79" viewBox="0 0 256 79" fill="none" xmlns="http://www.w3.org/2000/svg">
<path d="M4.53 59.5V14H10.575V44.355L22.6 14H28.645L19.61 36.75L28.645 59.5H22.6L16.62 44.355L10.575 59.5H4.53ZM58.6481 59.5L49.7431 14H55.7881L61.8331 44.745L67.8781 14H73.9231L79.9031 44.745L85.9481 14H91.9931L83.0881 59.5H76.7831L70.8681 29.34L64.9531 59.5H58.6481ZM104.574 59.565L113.739 14.065H119.654L128.689 59.565H122.644L120.889 51.05H112.244L110.619 59.565H104.574ZM113.414 45.07H119.849L116.729 28.885L113.414 45.07ZM146.499 59.5V14H152.544L161.579 41.755L170.614 14H176.659V59.5H170.614V32.46L164.569 50.985H158.589L152.544 32.46V59.5H146.499Z" fill="#FD9717"/>
<path d="M220.393 63V58.8452L235.997 41.7642C237.828 39.7637 239.336 38.0249 240.521 36.5476C241.706 35.0549 242.583 33.6546 243.153 32.3466C243.737 31.0232 244.03 29.6383 244.03 28.1918C244.03 26.5298 243.63 25.091 242.83 23.8754C242.045 22.6597 240.968 21.721 239.598 21.0593C238.228 20.3976 236.69 20.0668 234.982 20.0668C233.166 20.0668 231.581 20.4438 230.227 21.1978C228.888 21.9364 227.849 22.9751 227.11 24.3139C226.387 25.6527 226.026 27.2223 226.026 29.0227H220.578C220.578 26.2528 221.217 23.8215 222.494 21.7287C223.771 19.6359 225.51 18.0047 227.711 16.8352C229.926 15.6657 232.412 15.081 235.166 15.081C237.936 15.081 240.391 15.6657 242.529 16.8352C244.668 18.0047 246.346 19.582 247.561 21.5671C248.777 23.5522 249.385 25.7604 249.385 28.1918C249.385 29.9306 249.069 31.631 248.439 33.293C247.823 34.9395 246.746 36.7784 245.207 38.8097C243.684 40.8255 241.568 43.2876 238.859 46.196L228.241 57.5526V57.9219H250.216V63H220.393Z" fill="#57A80D"/>
</svg>
