<svg width="2560" height="1075" viewBox="0 0 2560 1075" fill="none" xmlns="http://www.w3.org/2000/svg">
<path d="M2286 15C2287.24 15.069 2288.47 15.1379 2289.75 15.209C2347.67 18.4677 2405.45 22.722 2454 58C2454.59 58.4162 2455.18 58.8324 2455.79 59.2612C2473.21 71.6165 2489.09 87.6093 2500 106C2500.39 106.631 2500.77 107.263 2501.17 107.914C2503.96 112.518 2506.54 117.21 2509 122C2509.35 122.683 2509.7 123.366 2510.07 124.07C2530.75 165.043 2540.6 212.792 2545.06 258.062C2545.32 260.557 2545.57 263.051 2545.82 265.545C2549.86 305.627 2552.86 345.774 2555 386C2555.08 387.404 2555.08 387.404 2555.15 388.836C2557.55 434.332 2557.31 479.859 2557.26 525.402C2557.25 532.815 2557.25 540.228 2557.26 547.64C2557.31 593.463 2557.35 639.225 2555 685C2554.92 686.551 2554.85 688.101 2554.77 689.652C2554.35 698.211 2553.83 706.762 2553.25 715.312C2553.17 716.546 2553.09 717.779 2553 719.049C2551.61 740.122 2549.86 761.157 2547.94 782.188C2547.84 783.215 2547.84 783.215 2547.75 784.263C2546.87 793.846 2545.96 803.425 2545 813C2544.88 814.215 2544.76 815.431 2544.63 816.683C2543.26 830.216 2541.69 843.576 2538.81 856.875C2538.66 857.572 2538.52 858.27 2538.36 858.989C2528.22 906.885 2512.73 956.171 2478 992C2477.29 992.75 2476.58 993.5 2475.85 994.273C2462.42 1008.17 2446.07 1019.12 2429 1028C2428.33 1028.35 2427.66 1028.7 2426.97 1029.05C2350.45 1068.26 2242.56 1058.37 1947.6 1066.9C1943.19 1066.98 1938.78 1067.06 1934.38 1067.14C1841.01 1068.82 1747.64 1068.27 1625 1066C1623.94 1065.98 1623.94 1065.98 1622.85 1065.96C1540.63 1064.36 1458.39 1062.64 1332 1057C1330.96 1056.95 1329.91 1056.89 1328.84 1056.83C1249.88 1052.68 1163.99 1045.63 1107.18 984C1100.48 976.27 1095.15 967.805 1090 959C1089.33 957.876 1088.67 956.752 1087.98 955.594C1074.47 931.602 1066.08 904.626 1059.31 878.062C1059.05 877.042 1058.79 876.021 1058.52 874.969C1053.24 853.495 1050.02 831.933 1047.94 809.938C1047.68 807.347 1047.43 804.756 1047.18 802.166C1038.8 716.022 1035.63 630.074 1035.74 543.567C1035.75 537.294 1035.75 531.02 1035.74 524.747C1035.68 480.457 1036.04 436.254 1038 392C1038.04 391.12 1038.08 390.24 1038.12 389.334C1038.56 379.507 1039.11 369.691 1039.75 359.875C1039.83 358.585 1039.91 357.296 1040 355.967C1041.36 334.452 1043.09 312.973 1045 291.5C1045.06 290.818 1045.12 290.135 1045.18 289.432C1046.57 273.75 1048.15 258.098 1050.01 242.465C1050.09 241.792 1050.17 241.119 1050.25 240.426C1056.81 184.629 1074.01 121.339 1114 80C1114.87 79.0744 1115.75 78.1489 1116.65 77.1953C1181.81 9.73841 1284.54 15.6598 1612.67 4.46142C1618.92 4.35368 1625.16 4.249 1631.41 4.14501C1637.54 4.0426 1643.68 3.93414 1649.81 3.8203C1730.69 2.32923 1811.65 2.38663 2286 15Z" fill="#CD201F"/>
<path d="M1813 182C1843.36 182 1873.72 182 1905 182C1905.33 254.93 1905.66 327.86 1906 403C1909.63 399.04 1913.26 395.08 1917 391C1937.02 369.879 1964 348.509 1994.51 347.637C1996.71 347.638 1998.92 347.655 2001.12 347.688C2002.23 347.684 2003.33 347.681 2004.46 347.678C2023.23 347.8 2039.91 354.086 2053.62 367.062C2086.75 401.742 2088.16 458.715 2088.15 503.825C2088.15 506.324 2088.15 508.822 2088.16 511.321C2088.16 517.38 2088.17 523.439 2088.17 529.497C2088.17 534.438 2088.17 539.379 2088.17 544.32C2088.18 558.397 2088.19 572.474 2088.19 586.552C2088.19 587.687 2088.19 587.687 2088.19 588.845C2088.19 589.603 2088.19 590.361 2088.19 591.141C2088.18 603.368 2088.19 615.595 2088.21 627.822C2088.22 640.445 2088.23 653.068 2088.23 665.691C2088.23 672.75 2088.23 679.808 2088.24 686.867C2088.35 762.001 2088.35 762.001 2083.69 789.125C2083.58 789.777 2083.47 790.43 2083.36 791.102C2079.11 816.742 2069.61 842.183 2048 858.23C2040.07 863.414 2032.09 866.527 2023 869C2021.98 869.277 2021.98 869.277 2020.94 869.56C1996.16 875.743 1972.49 868.472 1951.28 855.801C1933.82 845.078 1918.76 830.945 1906 815C1905.67 831.5 1905.34 848 1905 865C1874.64 865 1844.28 865 1813 865C1813 639.61 1813 414.22 1813 182Z" fill="#FEFDFD"/>
<path d="M2321 351C2322.11 351.193 2322.11 351.193 2323.24 351.39C2347.3 355.692 2367.73 368.117 2385 385C2385.86 385.801 2386.72 386.601 2387.61 387.426C2418.01 416.309 2427.54 460.615 2429 501C2429.18 510.528 2429.12 520.06 2429.1 529.59C2429.1 532.037 2429.1 534.484 2429.09 536.931C2429.09 545.933 2429.08 554.935 2429.06 563.938C2429.04 584.088 2429.02 604.239 2429 625C2368.61 625 2308.22 625 2246 625C2246.12 641.933 2246.25 658.866 2246.38 676.312C2246.41 681.621 2246.44 686.93 2246.48 692.4C2246.52 697.239 2246.52 697.239 2246.56 702.078C2246.58 704.201 2246.59 706.324 2246.6 708.448C2246.66 719.182 2246.8 729.857 2247.88 740.544C2247.96 741.287 2248.03 742.03 2248.11 742.795C2249.6 755.739 2254.32 769.346 2263.97 778.43C2274.82 786.834 2286.89 786.778 2300 786C2309.39 784.642 2316.69 779.392 2322.62 772.117C2327.91 763.995 2331.21 753.894 2331.32 744.239C2331.34 742.92 2331.36 741.601 2331.38 740.242C2331.39 738.861 2331.4 737.479 2331.41 736.098C2331.44 734.192 2331.44 734.192 2331.47 732.247C2331.53 727.519 2331.58 722.791 2331.63 718.062C2331.75 707.482 2331.87 696.901 2332 686C2364.01 686 2396.02 686 2429 686C2429 728.566 2429 728.566 2428.17 739.724C2428.05 741.308 2427.95 742.894 2427.85 744.479C2426.08 774.154 2416.75 803.321 2397 826C2396.29 826.831 2395.58 827.663 2394.85 828.52C2377.63 848.224 2354.64 862.103 2329 867.688C2327.62 868.006 2327.62 868.006 2326.21 868.33C2289.56 876.511 2249 870.841 2216.61 852.031C2182.92 830.514 2162.54 796.539 2154 758C2149.71 737.602 2148.69 716.87 2148.74 696.083C2148.74 693.995 2148.73 691.905 2148.73 689.816C2148.72 684.215 2148.73 678.614 2148.73 673.013C2148.74 667.109 2148.73 661.205 2148.73 655.3C2148.73 645.394 2148.73 635.488 2148.74 625.581C2148.75 614.178 2148.75 602.775 2148.74 591.373C2148.73 581.525 2148.73 571.677 2148.73 561.829C2148.73 555.972 2148.73 550.116 2148.73 544.259C2148.72 538.751 2148.73 533.244 2148.74 527.736C2148.74 525.732 2148.74 523.728 2148.73 521.724C2148.65 477.773 2155.7 429.561 2185 395C2185.44 394.478 2185.89 393.956 2186.34 393.417C2208.79 367.274 2241.38 350.927 2275.74 348.145C2291.09 347.161 2305.89 348.23 2321 351Z" fill="#FEFEFE"/>
<path d="M785.001 351C785.01 363.373 785.019 375.757 785.028 388.505C785.061 429.15 785.113 469.795 785.178 510.44C785.188 516.753 785.198 523.066 785.208 529.378C785.21 530.634 785.212 531.891 785.214 533.186C785.245 553.539 785.262 573.893 785.273 594.246C785.286 615.128 785.313 636.011 785.354 656.893C785.38 669.779 785.393 682.665 785.392 695.552C785.392 704.387 785.406 713.223 785.433 722.059C785.447 727.157 785.455 732.254 785.446 737.351C785.442 739.686 785.442 742.022 785.446 744.357L785.473 751.364C785.478 753.049 785.477 754.734 785.469 756.418V756.419C785.424 766.215 785.654 774.69 792.082 783.047L792.169 783.159L792.282 783.243C797.797 787.298 803.756 787.641 810.102 786.995L810.145 786.99L810.187 786.982C829.068 783.399 842.921 768.112 853.41 753.417C854.769 751.642 854.738 751.675 856.238 750.183L856.252 750.17L856.266 750.155C862.624 743.322 861.837 735.286 861.76 727.122C861.767 725.495 861.775 723.868 861.787 722.241V722.24C861.799 720.006 861.803 717.772 861.801 715.539L861.781 708.842C861.768 704.03 861.788 699.218 861.805 694.4V694.399C861.829 686.056 861.832 677.714 861.819 669.371C861.801 657.312 861.817 645.253 861.84 633.193C861.877 613.625 861.887 594.056 861.88 574.488C861.873 555.482 861.879 536.476 861.902 517.47C861.904 515.711 861.904 515.713 861.906 513.919C861.913 508.04 861.921 502.162 861.929 496.283C861.99 447.855 862.004 399.428 862 351H958V864H861.981L861 811.981L860.953 809.493L847.266 824.321C839.388 832.543 831.432 840.342 822.396 847.203L822.389 847.209C821.87 847.61 821.35 848.011 820.815 848.424C797.962 865.977 773.088 873.716 744.248 870.584C728.709 867.438 715.763 858.598 706.408 845.849C696.054 830.052 691.61 811.354 689.776 791.985C687.941 772.593 688.729 752.652 688.768 734.339V734.338C688.776 729.164 688.774 723.99 688.772 718.818C688.771 709.886 688.777 700.953 688.788 692.021C688.804 679.105 688.81 666.188 688.812 653.272C688.817 632.312 688.83 611.351 688.849 590.39C688.867 570.044 688.881 549.698 688.89 529.353C688.89 528.096 688.891 526.838 688.892 525.543C688.894 519.237 688.897 512.93 688.899 506.624C688.92 454.749 688.956 402.875 688.999 351H785.001Z" fill="black" stroke="#CD201F" stroke-width="2"/>
<path d="M113.624 177.5C117.966 192.389 122.225 207.244 126.157 222.232V222.233C126.678 224.21 127.2 226.187 127.722 228.163C128.83 232.363 129.938 236.564 131.043 240.766C133.711 250.905 136.388 261.043 139.066 271.18C139.686 273.524 140.306 275.869 140.925 278.213C149.313 309.974 157.81 341.705 166.308 373.436C168.34 381.026 170.371 388.617 172.399 396.209C173.572 400.596 174.745 404.983 175.922 409.368C177.014 413.44 178.104 417.512 179.19 421.586C179.586 423.066 179.983 424.546 180.381 426.025L181.983 432.024C182.28 433.133 182.577 434.242 182.883 435.384V435.385C183.2 436.759 183.349 437.409 183.424 438.089C183.499 438.771 183.5 439.489 183.5 441V441.5H186.431L186.494 441.074C186.62 440.23 186.62 440.23 186.749 439.368C188.38 429.489 191.079 419.889 193.671 410.188V410.187C194.203 408.184 194.734 406.181 195.265 404.179C196.7 398.769 198.141 393.36 199.582 387.951C201.1 382.251 202.613 376.549 204.127 370.848C206.648 361.355 209.17 351.863 211.695 342.371C215.324 328.729 218.946 315.085 222.565 301.44C222.991 299.838 222.991 299.837 223.425 298.202C224.553 293.948 225.681 289.693 226.81 285.438C228.727 278.208 230.646 270.978 232.564 263.748C240.193 235.005 247.799 206.255 255.385 177.5H362.42C361.723 182.269 360.946 186.162 359.512 190.719L359.511 190.72C359.205 191.7 359.204 191.703 358.892 192.703C358.212 194.876 357.524 197.048 356.836 199.22V199.222C356.345 200.784 355.855 202.346 355.365 203.909C354.312 207.269 353.254 210.629 352.194 213.987C350.497 219.367 348.807 224.748 347.118 230.13C345.057 236.696 342.995 243.263 340.93 249.828C337.334 261.26 333.751 272.696 330.179 284.136C329.925 284.949 329.668 285.772 329.406 286.61C328.124 290.715 326.843 294.82 325.562 298.925C323.228 306.399 320.891 313.873 318.556 321.347C317.253 325.515 315.95 329.683 314.647 333.851L312.304 341.351C284.96 428.85 284.961 428.851 284.223 431.212C283.704 432.873 283.184 434.534 282.665 436.195L278.805 448.528C276.455 456.02 274.114 463.516 271.847 471.036C267.034 486.996 262.177 502.759 255.744 518.116L255.743 518.118C229.491 581.364 233.321 647.955 234.254 714.922C234.412 726.394 234.504 737.867 234.554 749.341C234.557 750.158 234.561 750.978 234.564 751.82C234.582 755.929 234.599 760.038 234.615 764.146C234.748 797.601 235.079 831.049 235.494 864.5H133.507C133.611 856.536 133.714 848.567 133.82 840.361V840.36C134.145 813.952 134.335 787.544 134.445 761.134C134.463 756.991 134.482 752.849 134.501 748.706C134.505 747.885 134.509 747.055 134.513 746.208C134.569 734.696 134.686 723.187 134.854 711.676C135.143 691.821 135.319 671.967 135.258 652.107C135.255 651.328 135.253 650.564 135.251 649.761C135.07 599.658 129.712 554.534 110.423 507.692C105.597 495.971 101.947 483.973 98.375 471.788V471.787L97.1523 467.705C96.7406 466.346 96.3251 464.988 95.9072 463.631L93.3838 455.496C92.7311 453.385 92.0786 451.274 91.4268 449.163C91.1055 448.123 90.7841 447.083 90.4531 446.012C89.1382 441.754 87.8245 437.495 86.5107 433.236C74.1604 393.204 61.704 353.205 49.2158 313.217C48.4895 310.891 47.7632 308.564 47.0371 306.238C37.4214 275.434 27.7753 244.639 17.9141 213.91L16.8398 210.562C13.2617 199.395 12.366 196.602 10.041 189.651L7.08789 180.851C6.77972 179.841 6.64095 179.381 6.57129 178.926C6.51427 178.553 6.50317 178.179 6.50098 177.5H113.624Z" fill="black" stroke="#CD201F"/>
<path d="M1640 355C1672.01 355 1704.02 355 1737 355C1737 523.3 1737 691.6 1737 865C1704.99 865 1672.98 865 1640 865C1639.67 847.18 1639.34 829.36 1639 811C1634.37 815.633 1630.08 820.033 1625.83 824.938C1619.19 832.416 1611.84 838.812 1604 845C1602.5 846.224 1602.5 846.224 1600.97 847.473C1579.79 864.57 1555.38 873.785 1528 872C1512.45 870.239 1497.5 862.242 1487.67 850.133C1481.87 842.275 1478.19 834.198 1475 825C1474.54 823.726 1474.54 823.726 1474.07 822.426C1465.09 795.278 1466.71 765.094 1466.77 736.907C1466.78 731.782 1466.77 726.657 1466.77 721.532C1466.77 712.678 1466.78 703.825 1466.79 694.971C1466.8 682.171 1466.81 669.37 1466.81 656.57C1466.82 635.796 1466.83 615.023 1466.85 594.249C1466.87 574.083 1466.88 553.918 1466.89 533.753C1466.89 532.507 1466.89 531.262 1466.89 529.978C1466.89 523.729 1466.9 517.48 1466.9 511.231C1466.92 459.487 1466.96 407.744 1467 356C1499.01 356 1531.02 356 1564 356C1564.01 368.459 1564.03 380.917 1564.04 393.753C1564.09 433.613 1564.16 473.472 1564.23 513.331C1564.24 519.522 1564.25 525.712 1564.26 531.903C1564.26 533.136 1564.27 534.368 1564.27 535.638C1564.3 555.597 1564.33 575.555 1564.35 595.514C1564.37 615.992 1564.41 636.47 1564.45 656.949C1564.48 669.585 1564.49 682.222 1564.5 694.859C1564.5 703.524 1564.52 712.189 1564.55 720.853C1564.56 725.853 1564.57 730.852 1564.57 735.852C1564.56 740.432 1564.57 745.011 1564.59 749.591C1564.6 751.245 1564.6 752.9 1564.59 754.554C1564.34 769.137 1564.34 769.137 1570.38 782C1576.96 787.02 1584.01 786.802 1592 786C1600.74 783.727 1607.42 779.029 1614 773C1614.93 772.147 1615.87 771.293 1616.83 770.414C1618.86 768.513 1620.78 766.551 1622.67 764.513C1624.82 762.199 1627.04 760.066 1629.39 757.964C1639.95 747.603 1640.51 736.268 1640.67 722.304C1640.69 717.915 1640.65 713.528 1640.59 709.14C1640.55 704.378 1640.58 699.618 1640.6 694.856C1640.63 686.624 1640.61 678.393 1640.56 670.161C1640.48 658.26 1640.48 646.359 1640.5 634.458C1640.52 615.144 1640.48 595.832 1640.41 576.519C1640.34 557.767 1640.29 539.016 1640.29 520.265C1640.29 519.107 1640.29 517.95 1640.29 516.757C1640.28 510.95 1640.28 505.143 1640.28 499.336C1640.27 451.223 1640.16 403.112 1640 355Z" fill="#FEFEFE"/>
<path d="M505.906 442.048C497.432 434.9 487.983 433.017 477.04 433.254L477.01 433.256C466.048 434.14 457.491 438.398 449.89 446.278L449.875 446.293L449.863 446.308C443.315 454.326 440.371 463.895 439.065 473.834C437.923 482.521 438.031 491.532 438.092 500.061L438.112 503.684L438.096 511.414C438.083 517.656 438.086 523.899 438.094 530.141C438.101 535.219 438.101 540.298 438.098 545.376C438.098 545.739 438.098 546.102 438.098 546.468C438.098 546.833 438.097 547.202 438.097 547.576C438.096 549.051 438.095 550.527 438.094 552.003C438.086 565.802 438.096 579.601 438.112 593.4C438.125 605.208 438.123 617.015 438.109 628.823C438.093 642.575 438.086 656.328 438.095 670.08C438.096 671.55 438.097 673.02 438.098 674.49C438.099 675.213 438.1 675.936 438.1 676.681L438.091 691.875C438.087 695.292 438.086 698.709 438.088 702.126L438.106 712.376C438.11 714.872 438.109 717.369 438.102 719.865C438.036 735.551 437.999 743.484 439.902 750.812C441.805 758.142 445.646 764.853 453.23 778.119L453.269 778.187L453.328 778.241C461.703 785.874 470.787 788.578 482.003 788.5H482.03L482.055 788.497C494.243 787.138 503.018 783.046 510.825 773.505L510.834 773.492L510.844 773.478C519.787 760.958 521.653 746.102 521.64 731.238L521.649 727.985L521.661 717.21C521.665 714.632 521.671 712.055 521.676 709.477C521.69 702.477 521.695 695.476 521.7 688.475C521.702 684.098 521.707 679.721 521.711 675.344C521.724 663.209 521.734 651.074 521.738 638.938C521.738 638.168 521.738 637.382 521.738 636.588C521.738 635.815 521.739 635.027 521.739 634.23C521.739 632.655 521.739 631.078 521.74 629.503C521.74 628.721 521.74 627.94 521.741 627.135C521.745 614.484 521.762 601.833 521.786 589.182C521.809 576.172 521.822 563.161 521.823 550.151C521.824 542.856 521.83 535.56 521.848 528.265C521.865 521.397 521.867 514.528 521.858 507.659C521.857 505.147 521.861 502.635 521.871 500.123C521.946 479.807 522.017 458.529 506.75 442.781L506.737 442.767L506.723 442.756L505.906 442.048ZM342.355 699.697C342.352 697.589 342.348 695.482 342.344 693.374C342.335 687.688 342.333 682.002 342.333 676.315C342.332 672.748 342.33 669.18 342.328 665.613C342.318 653.128 342.314 640.642 342.315 628.157C342.316 616.587 342.304 605.016 342.289 593.446C342.275 583.459 342.27 573.472 342.271 563.485C342.271 557.544 342.269 551.604 342.258 545.663C342.159 486.559 342.929 424.278 386.726 379.544C411.18 355.386 445.511 344.852 479.955 345.745C513.862 346.624 547.828 358.577 572.504 379.44L573.672 380.44C606.053 410.083 615.148 456.616 617.404 498.739V498.74C617.737 506.647 617.647 514.568 617.645 522.502V522.503C617.648 524.632 617.652 526.76 617.656 528.889C617.665 534.633 617.667 540.378 617.667 546.122C617.668 549.725 617.67 553.328 617.672 556.93C617.682 569.538 617.686 582.145 617.685 594.753C617.684 606.44 617.696 618.128 617.711 629.815C617.725 639.9 617.73 649.986 617.729 660.071C617.729 666.072 617.731 672.072 617.742 678.073C617.836 735.01 617.372 792.164 576.026 835.641C549.149 861.813 512.52 874.184 475.404 873.715C460.901 873.292 446.862 870.255 433.163 865.527H433.162C432.519 865.307 431.876 865.086 431.213 864.859C399.901 853.867 373.786 829.806 359.233 800.123C350.167 780.588 345.649 759.419 343.681 738.029L343.499 735.958L343.246 732.992H343.247C342.407 721.898 342.352 710.841 342.355 699.698V699.697Z" fill="black" stroke="#CD201F"/>
<path d="M1162 183C1267.6 183 1373.2 183 1482 183C1482 214.68 1482 246.36 1482 279C1445.04 279 1408.08 279 1370 279C1370 472.05 1370 665.1 1370 864C1336.67 864 1303.34 864 1269 864C1269 670.95 1269 477.9 1269 279C1233.69 279 1198.38 279 1162 279C1162 247.32 1162 215.64 1162 183Z" fill="white"/>
<path d="M1975.94 438.187C1986.12 446.502 1989.13 459.887 1990.6 472.333C1991.58 482.264 1991.27 492.306 1991.24 502.272C1991.24 504.805 1991.25 507.338 1991.25 509.87C1991.25 516.003 1991.25 522.135 1991.24 528.268C1991.23 535.425 1991.23 542.582 1991.23 549.74C1991.23 562.518 1991.22 575.296 1991.21 588.074C1991.19 600.445 1991.18 612.816 1991.19 625.186C1991.19 626.33 1991.19 626.33 1991.19 627.497C1991.19 628.258 1991.19 629.019 1991.19 629.803C1991.19 643.931 1991.18 658.058 1991.17 672.186C1991.17 677.163 1991.17 682.141 1991.17 687.118C1991.17 693.827 1991.16 700.537 1991.15 707.246C1991.15 709.701 1991.15 712.157 1991.15 714.612C1991.15 764.704 1991.15 764.704 1976 780C1966.03 787.814 1955.16 787.997 1943 787C1929 784.472 1914.95 774.949 1905 765C1904.89 763.356 1904.86 761.708 1904.85 760.061C1904.84 758.446 1904.84 758.446 1904.82 756.799C1904.82 755.602 1904.82 754.405 1904.81 753.171C1904.8 751.911 1904.8 750.651 1904.79 749.352C1904.77 745.837 1904.75 742.322 1904.74 738.807C1904.72 735.797 1904.71 732.786 1904.69 729.775C1904.54 701.226 1904.46 672.676 1904.4 644.127C1904.39 640.409 1904.38 636.691 1904.38 632.973C1904.37 632.048 1904.37 631.124 1904.37 630.172C1904.33 615.208 1904.26 600.244 1904.17 585.28C1904.09 569.922 1904.03 554.565 1904.02 539.206C1904.01 530.581 1903.98 521.957 1903.91 513.332C1903.85 505.984 1903.83 498.637 1903.85 491.289C1903.85 487.541 1903.85 483.794 1903.79 480.046C1903.74 475.977 1903.76 471.913 1903.79 467.844C1903.76 466.665 1903.73 465.486 1903.7 464.271C1903.8 459.33 1904.01 456.225 1907.18 452.302C1909.69 450.006 1912.23 447.968 1915 446C1915.68 445.501 1916.36 445.003 1917.06 444.489C1918.71 443.318 1920.38 442.271 1922.13 441.25C1922.75 440.881 1923.38 440.511 1924.03 440.131C1940.12 431.067 1959.48 427.77 1975.94 438.187Z" fill="#CD201F"/>
<path d="M2314.44 437.188C2323.62 443.837 2328.45 452.778 2330.53 463.829C2332.04 473.468 2332.26 482.82 2332.2 492.555C2332.19 494.01 2332.19 495.465 2332.19 496.92C2332.18 502.238 2332.15 507.557 2332.13 512.875C2332.08 524.796 2332.04 536.718 2332 549C2303.62 549 2275.24 549 2246 549C2245.96 536.873 2245.92 524.745 2245.88 512.25C2245.86 508.444 2245.84 504.637 2245.82 500.716C2245.81 496.009 2245.81 496.009 2245.81 493.795C2245.81 492.273 2245.8 490.751 2245.79 489.229C2245.68 472.369 2246.59 453.866 2259 441C2272.12 428.684 2299.38 428.619 2314.44 437.188Z" fill="#CD201F"/>
</svg>
